<?xml version="1.0" standalone="no"?>
<!DOCTYPE svg PUBLIC "-//W3C//DTD SVG 20010904//EN"
 "http://www.w3.org/TR/2001/REC-SVG-20010904/DTD/svg10.dtd">
<svg version="1.0" xmlns="http://www.w3.org/2000/svg"
 width="800.000000pt" height="302.000000pt" viewBox="0 0 800.000000 302.000000"
 preserveAspectRatio="xMidYMid meet">
<metadata>
Created by potrace 1.15, written by Peter Selinger 2001-2017
</metadata>
<g transform="translate(0.000000,302.000000) scale(0.100000,-0.100000)"
fill="#000000" stroke="none">
<path d="M0 3005 c0 -8 4 -15 10 -15 15 0 50 -33 50 -47 0 -8 12 -18 26 -23
22 -9 24 -13 14 -26 -19 -22 3 -43 29 -27 10 7 28 9 40 6 12 -3 36 1 54 9 58
28 97 37 97 25 0 -12 39 -42 45 -35 10 12 -21 51 -50 64 -31 13 -48 34 -27 34
4 0 21 11 37 25 l30 24 -177 1 c-152 0 -178 -2 -178 -15z"/>
<path d="M465 3013 c11 -3 24 -9 30 -14 5 -5 17 -9 26 -9 10 0 20 -4 23 -8 9
-15 -20 -94 -40 -110 -17 -13 -17 -14 -1 -8 10 3 30 6 43 6 15 0 24 6 24 15 0
27 57 19 77 -11 10 -15 29 -37 42 -50 33 -32 20 -42 -57 -45 -61 -2 -63 -3
-60 -28 3 -23 7 -26 35 -23 53 5 93 -49 58 -78 -19 -16 -21 -90 -1 -90 7 0 24
-10 38 -23 14 -13 47 -32 74 -43 40 -17 50 -25 52 -48 4 -33 25 -43 59 -27 21
10 29 9 44 -5 34 -31 14 -74 -34 -74 -8 0 -29 -13 -47 -30 -34 -32 -80 -41
-80 -16 0 45 -79 19 -110 -36 -27 -48 -59 -52 -78 -8 -12 27 -11 33 7 56 22
27 29 84 11 84 -19 0 -10 29 11 35 11 4 19 10 17 13 -2 4 -10 21 -18 37 -8 17
-19 33 -24 36 -5 4 1 13 13 20 22 14 29 53 11 64 -6 4 -22 -1 -36 -10 -30 -20
-36 -16 -39 25 -3 34 -15 52 -22 33 -3 -7 -14 -13 -26 -13 -12 0 -28 -4 -35
-9 -11 -7 -11 -9 2 -14 9 -4 16 -13 16 -21 0 -7 11 -21 25 -30 20 -13 25 -25
25 -56 0 -27 -4 -38 -12 -35 -7 2 -31 7 -53 9 -53 7 -85 16 -85 26 0 4 -18 15
-41 24 -24 10 -43 25 -46 36 -3 11 -12 20 -19 20 -8 0 -14 7 -14 15 0 8 7 15
15 15 8 0 15 6 15 14 0 21 -71 8 -87 -15 -22 -30 -91 -14 -135 32 -35 36 -38
37 -48 19 -13 -24 -13 -80 0 -80 6 0 10 -9 10 -21 0 -18 4 -20 29 -14 24 5 33
2 43 -15 7 -12 28 -28 46 -36 39 -16 40 -44 2 -55 -45 -12 -97 -10 -110 6 -7
8 -16 15 -21 15 -5 0 -9 -250 -9 -570 0 -449 3 -570 13 -570 16 0 81 -40 75
-46 -3 -2 -18 0 -33 6 -55 21 -54 33 -54 -652 l-1 -628 4000 0 4000 0 0 315
c0 238 -3 315 -12 315 -9 0 -9 3 0 12 7 7 12 29 12 50 l0 38 -32 -20 c-49 -30
-66 -24 -29 10 17 17 31 36 31 44 0 7 7 19 15 26 13 11 15 74 15 459 0 245 -4
442 -8 436 -9 -12 -82 -15 -82 -3 0 4 -8 8 -17 8 -16 0 -16 -2 -3 -11 11 -8 3
-9 -30 -3 -25 3 -82 8 -127 10 -75 2 -82 1 -74 -14 15 -27 74 -79 99 -87 36
-11 26 -27 -13 -19 -24 4 -35 3 -35 -6 0 -7 -7 -10 -15 -6 -8 3 -15 1 -15 -4
0 -6 9 -10 19 -10 11 0 23 -5 26 -10 3 -6 0 -10 -8 -10 -8 0 -17 -7 -21 -15
-13 -35 -72 -2 -64 37 2 9 -6 12 -26 10 -43 -5 -61 5 -45 24 10 12 9 19 -8 36
-17 16 -24 18 -42 9 -11 -7 -21 -20 -21 -31 0 -25 -8 -29 -47 -23 l-33 5 55
107 c79 153 93 174 114 168 21 -5 48 30 33 45 -5 5 -53 7 -108 6 -85 -3 -99
-5 -102 -20 -2 -13 3 -18 17 -18 26 0 25 -14 -2 -65 l-22 -40 -103 -3 c-56 -1
-102 1 -102 5 0 26 52 89 82 99 25 8 32 16 30 31 -2 17 4 22 33 27 19 4 40 4
45 1 5 -3 45 4 87 16 62 17 94 20 156 16 43 -3 83 -10 90 -15 7 -6 33 -16 59
-22 26 -7 62 -23 79 -36 19 -14 47 -24 66 -24 32 0 39 -5 68 -45 13 -17 14 59
15 598 l0 617 -1295 0 c-896 -1 -1296 -4 -1301 -11 -3 -6 -16 -8 -28 -4 -40
11 -412 17 -396 6 8 -6 27 -11 43 -11 41 0 32 -19 -13 -26 -22 -4 -40 -10 -40
-15 0 -18 -3 -25 -22 -52 -11 -15 -25 -26 -31 -24 -16 5 -21 77 -6 77 7 0 9 3
5 7 -9 9 -46 11 -41 2 3 -4 -1 -9 -9 -12 -10 -4 -13 -20 -11 -54 3 -55 43
-183 57 -183 15 0 98 -71 98 -84 0 -6 -20 -31 -45 -56 -24 -25 -44 -55 -45
-67 0 -12 -3 -29 -6 -38 -8 -20 -62 -48 -80 -41 -19 7 -18 55 1 62 33 13 12
24 -34 18 -27 -3 -51 -2 -54 3 -3 5 3 28 14 52 24 54 24 58 -2 71 -16 9 -24 8
-38 -4 -10 -9 -21 -16 -26 -16 -5 0 -16 -7 -25 -15 -13 -12 -30 -14 -75 -9
-53 6 -65 13 -116 60 l-57 52 -94 7 c-53 4 -100 10 -105 14 -15 10 -93 129
-93 142 0 8 -18 10 -67 4 -38 -3 -87 -8 -110 -9 -47 -3 -75 7 -48 17 13 6 14
10 4 29 -8 14 -8 23 -2 25 16 6 2 53 -19 64 -10 5 -27 7 -38 4 -10 -3 -21 -1
-25 5 -3 5 -39 10 -78 10 -84 0 -92 -8 -96 -103 -2 -53 0 -59 34 -92 20 -19
34 -39 30 -45 -3 -5 3 -15 14 -21 10 -7 17 -17 15 -23 -5 -13 40 -68 48 -60 3
3 18 2 33 -2 21 -5 25 -11 21 -29 -4 -17 -1 -24 17 -30 28 -9 58 -6 75 7 15
13 155 2 160 -12 3 -9 47 -7 108 5 15 3 28 -7 52 -41 37 -51 38 -59 15 -72
-22 -13 -28 -85 -8 -102 8 -7 15 -18 15 -25 0 -8 4 -15 10 -17 5 -1 12 -23 16
-47 5 -33 4 -42 -5 -37 -18 12 -8 -17 11 -32 10 -7 18 -18 18 -24 0 -5 -23 6
-50 26 -28 20 -57 36 -65 36 -19 0 -19 27 0 64 8 15 15 36 15 45 0 19 -60 81
-78 81 -7 0 -12 5 -12 10 0 6 -11 22 -25 35 -28 29 -98 34 -143 11 -38 -19
-111 -100 -157 -172 -21 -32 -50 -77 -64 -99 -14 -22 -56 -72 -93 -111 -38
-39 -68 -76 -68 -83 0 -6 -7 -11 -17 -11 -9 0 -72 -29 -141 -65 -68 -36 -127
-64 -130 -61 -2 3 0 18 6 33 25 62 42 157 53 279 17 209 40 240 279 374 61 34
108 66 105 70 -3 5 -44 32 -91 60 -63 38 -91 50 -109 46 -13 -3 -171 -76 -352
-162 -180 -85 -349 -165 -375 -176 -41 -17 -48 -25 -48 -48 0 -18 11 -39 32
-59 27 -26 39 -31 83 -31 29 0 89 13 140 29 50 16 92 27 95 24 3 -2 6 -76 8
-163 3 -155 3 -160 -28 -252 -36 -107 -90 -205 -203 -368 -44 -63 -102 -147
-128 -185 -26 -39 -62 -83 -78 -100 -36 -34 -38 -41 -12 -48 28 -7 54 -73 47
-122 -6 -46 -42 -126 -62 -138 -8 -4 -14 -16 -14 -25 -1 -41 -75 -87 -116 -72
-25 10 -64 56 -64 76 0 19 5 18 34 -11 31 -31 44 -31 87 -2 45 30 89 116 89
177 0 63 -21 90 -70 90 -32 0 -44 -6 -73 -40 -35 -42 -57 -97 -57 -147 0 -19
-16 -51 -46 -92 -53 -73 -106 -161 -97 -161 3 0 12 8 19 17 7 10 14 14 14 8 0
-5 -12 -23 -26 -40 -69 -80 -69 -123 0 -300 61 -158 65 -165 105 -189 33 -19
33 -20 10 -28 -12 -5 -29 -6 -36 -3 -8 2 -11 1 -8 -4 13 -22 -19 -22 -37 0
-13 16 -21 20 -25 12 -6 -15 -33 -17 -33 -3 0 6 -11 10 -25 10 -31 0 -33 17
-3 22 30 4 35 34 9 43 -19 6 -19 8 -6 21 17 18 20 34 5 34 -5 0 -10 8 -10 19
0 10 -12 26 -26 36 -14 9 -23 22 -20 30 3 9 -8 14 -42 17 -65 5 -114 -2 -109
-16 2 -6 12 -10 22 -8 9 2 14 -1 11 -6 -3 -5 -29 -12 -58 -15 -29 -4 -54 -11
-56 -17 -2 -5 -14 -10 -27 -10 -13 0 -25 -5 -27 -11 -2 -7 -12 -7 -31 0 -23 9
-27 8 -27 -7 0 -14 -2 -14 -9 -3 -5 8 -16 11 -26 7 -12 -4 -23 0 -32 14 -17
25 -31 25 -55 3 -11 -10 -39 -22 -62 -28 -56 -14 -188 -13 -193 1 -2 6 5 14
16 17 11 3 22 0 24 -6 2 -6 12 -4 28 6 19 12 33 14 64 7 42 -10 59 -5 35 10
-12 8 -10 10 7 10 12 0 48 12 80 27 75 35 94 38 86 15 -6 -15 -5 -15 10 -4 20
17 68 12 84 -8 10 -13 14 -13 26 4 10 13 16 15 21 8 13 -21 64 -14 77 9 10 20
9 21 -16 15 -20 -5 -25 -4 -19 6 4 7 -2 5 -13 -5 -15 -13 -26 -15 -44 -8 -13
5 -18 10 -11 10 7 1 10 6 7 11 -3 6 3 10 14 10 12 0 21 3 21 8 0 8 42 28 80
37 14 3 36 15 50 25 21 16 22 20 7 20 -23 0 -13 18 17 30 15 6 5 9 -39 10 -50
0 -57 2 -40 12 11 6 29 20 39 30 11 10 26 18 33 18 7 0 13 4 13 9 0 5 9 13 20
16 36 11 21 25 -27 26 l-48 1 45 20 c25 12 40 23 33 25 -13 5 -89 -19 -133
-42 -31 -16 -95 -21 -86 -6 3 5 18 12 33 15 16 4 59 16 98 28 l69 20 -23 19
-23 19 23 -2 c15 -2 23 2 21 10 -1 6 1 11 5 11 5 -1 17 -1 28 0 19 2 18 3 -2
11 -13 5 -23 14 -23 20 0 5 -21 10 -47 10 -57 0 -47 19 15 27 38 5 41 7 36 32
-5 22 -1 28 28 40 18 7 45 14 60 15 14 0 30 4 34 9 7 7 -16 11 -48 8 -10 -1
-18 3 -18 9 0 7 -7 10 -15 6 -18 -7 -20 8 -2 21 17 14 85 23 89 13 2 -5 14 0
28 11 17 14 21 22 13 26 -14 5 -18 44 -5 42 4 -1 16 -1 27 0 18 2 19 3 3 14
-15 10 -10 13 30 24 26 7 57 12 70 13 13 0 21 4 17 9 -3 6 0 13 8 18 7 4 23
21 35 37 12 16 56 65 99 110 91 96 176 221 168 247 -6 17 -8 29 -21 96 -5 29
-15 37 -95 75 -103 50 -124 78 -92 122 10 14 28 26 40 26 17 0 25 9 32 38 6
22 19 41 33 47 46 21 32 35 -36 35 -36 0 -66 4 -66 9 0 5 -3 16 -6 25 -4 11 0
16 14 16 20 0 36 25 26 41 -3 5 2 16 11 25 15 15 18 15 38 -3 30 -26 74 -53
88 -53 6 0 31 -14 56 -30 37 -26 54 -30 92 -28 44 3 46 5 49 35 3 27 -1 34
-30 49 -18 9 -40 23 -49 31 -9 8 -27 14 -40 14 -46 1 -140 24 -151 37 -18 21
4 35 36 22 37 -14 43 -13 50 6 12 31 -46 98 -93 107 -39 8 -84 49 -105 95 -23
50 -113 101 -145 81 -30 -19 -91 4 -140 52 -23 23 -41 46 -41 51 0 9 -27 6
-62 -7 -9 -4 -20 5 -29 22 -20 40 -25 41 -90 36 -51 -5 -59 -3 -59 11 0 10 -4
15 -9 12 -4 -3 -6 6 -3 19 2 15 0 25 -7 25 -6 0 -12 -3 -12 -7 -8 -54 -7 -72
6 -83 8 -7 15 -21 15 -32 0 -12 12 -24 35 -34 35 -14 48 -44 20 -44 -8 0 -15
-9 -15 -19 0 -10 -7 -22 -16 -25 -13 -5 -11 -11 10 -39 14 -19 26 -41 26 -50
0 -10 3 -16 8 -15 4 0 15 -2 25 -7 18 -8 59 -3 90 10 12 5 17 3 17 -9 0 -9 6
-16 13 -16 8 0 19 -11 25 -25 6 -14 16 -25 22 -25 13 0 13 -33 -1 -47 -13 -13
-104 10 -130 33 -8 8 -29 14 -45 14 -16 1 -47 7 -69 15 -55 20 -82 19 -90 -4
-3 -10 -5 -23 -4 -27 4 -17 -13 -64 -23 -64 -5 0 -12 9 -15 20 -7 25 -26 25
-82 0 -52 -24 -55 -24 -74 -5 -8 8 -39 17 -68 20 -30 3 -59 12 -64 20 -6 7
-30 18 -53 24 -30 9 -42 17 -42 30 0 28 -28 47 -48 34 -13 -8 -24 -7 -45 4
-26 13 -28 18 -22 49 8 47 -1 71 -30 78 -30 8 -34 41 -6 56 11 5 37 10 58 10
21 0 53 9 71 20 34 21 44 44 15 33 -15 -6 -16 -4 -5 9 15 19 -1 28 -49 28 -32
0 -34 6 -19 45 10 26 10 26 -33 21 -57 -8 -145 35 -168 82 l-17 32 -16 -25
c-24 -37 -36 -31 -36 19 0 46 20 67 44 47 8 -7 26 -4 54 10 47 24 50 29 24 52
-17 15 -60 17 -433 16 -228 -1 -405 -3 -394 -6z m593 -273 c30 -28 28 -37 -9
-45 -25 -6 -30 -11 -28 -33 1 -15 -4 -39 -11 -54 -11 -23 -10 -31 4 -52 9 -14
25 -30 36 -36 23 -12 26 -42 6 -59 -8 -6 -36 -14 -63 -17 -39 -5 -52 -3 -63
11 -12 15 -12 18 4 27 14 8 15 12 5 24 -9 11 -9 18 -1 26 21 21 13 25 -43 20
-51 -4 -54 -3 -60 21 -10 39 -2 62 23 65 26 4 28 14 7 32 -9 7 -15 23 -13 34
2 16 13 23 43 28 22 4 58 11 80 16 58 14 59 14 83 -8z m-41 -418 c6 -11 27
-27 47 -36 36 -17 49 -46 21 -46 -20 0 -19 -10 2 -25 26 -19 7 -39 -20 -20
-12 8 -29 15 -39 15 -10 0 -18 5 -18 10 0 6 9 10 20 10 33 0 23 18 -12 22 -21
2 -47 -5 -70 -19 -24 -15 -39 -19 -44 -12 -3 6 -3 13 0 16 3 3 2 11 -4 18 -18
22 0 54 36 61 19 3 37 10 40 15 9 15 28 10 41 -9z m2950 -34 c15 -7 39 -23 53
-36 46 -44 68 -44 134 0 11 8 20 9 22 3 3 -5 8 -15 12 -21 15 -21 201 -164
304 -233 118 -78 278 -208 278 -224 0 -6 8 -19 17 -29 16 -18 16 -18 0 -12 -9
3 -17 10 -17 15 0 5 -4 9 -10 9 -14 0 -12 -34 2 -48 10 -10 10 -15 -1 -21 -9
-6 -10 -14 -3 -27 5 -11 12 -64 16 -119 4 -61 11 -102 19 -107 9 -6 9 -8 0 -8
-7 0 -13 -4 -13 -9 0 -18 77 1 143 34 77 40 77 40 77 22 0 -8 -12 -19 -26 -25
-14 -7 -22 -17 -19 -22 3 -6 -2 -10 -12 -11 -13 0 -14 -2 -4 -6 8 -3 19 1 26
10 32 44 64 14 105 -97 44 -117 95 -366 75 -366 -14 0 -95 52 -95 61 0 6 -16
17 -37 25 -45 19 -92 12 -132 -21 -30 -26 -176 -83 -186 -73 -3 3 0 18 7 34 8
19 12 85 12 189 0 158 -1 161 -37 269 -61 179 -148 318 -270 433 -61 57 -174
130 -184 119 -3 -3 -11 1 -19 9 -28 28 -129 28 -221 0 -25 -8 -28 0 -24 60 1
17 -10 68 -24 114 -37 124 -33 137 32 109z m703 -137 c0 -4 9 -17 20 -29 18
-19 20 -31 16 -83 -3 -34 -8 -64 -11 -67 -2 -3 1 -12 7 -20 19 -22 -194 111
-252 157 l-25 21 26 0 c14 0 30 5 36 11 5 5 41 12 78 14 37 3 70 7 72 9 7 6
33 -4 33 -13z m-3047 -86 c103 -18 232 -63 304 -107 l53 -32 0 -212 0 -212
-77 -40 c-210 -108 -440 -135 -664 -77 -71 19 -193 72 -239 105 l-30 21 0 208
0 207 53 31 c173 105 393 144 600 108z m560 -116 c13 -13 25 -17 43 -13 14 4
33 0 48 -9 13 -9 43 -18 67 -21 24 -3 49 -13 56 -22 9 -12 20 -14 43 -9 26 6
37 2 61 -21 33 -32 37 -46 12 -42 -14 2 -18 -4 -18 -31 0 -31 -4 -36 -34 -44
-27 -7 -36 -5 -43 7 -5 9 -16 16 -24 16 -8 0 -33 25 -57 55 -23 30 -47 55 -54
55 -18 0 -43 -29 -43 -51 0 -14 -7 -19 -25 -19 -14 0 -25 4 -25 9 0 8 -46 0
-122 -22 -55 -15 -68 0 -68 81 0 60 -3 68 -27 88 l-27 21 109 -4 c92 -4 112
-7 128 -24z m1724 -21 c-26 -33 -51 -88 -44 -95 2 -2 17 17 32 41 16 25 34 47
41 50 7 3 0 -16 -17 -42 -69 -110 -81 -280 -34 -507 38 -179 199 -411 354
-509 90 -57 228 -84 283 -55 16 9 23 8 29 -2 13 -21 11 -24 -25 -41 -99 -47
-205 -27 -326 63 -43 31 -81 62 -84 67 -3 6 -26 20 -51 32 -25 12 -45 26 -45
31 0 5 -20 35 -44 66 -24 32 -59 90 -78 128 -39 76 -95 237 -105 298 -4 28 -9
35 -17 27 -7 -7 -11 -52 -11 -115 1 -113 -14 -120 -22 -11 -4 43 0 74 12 106
11 27 20 90 24 160 9 151 37 236 99 302 50 54 68 57 29 6z m2131 -3 c42 -14
22 -25 -48 -25 -62 0 -70 -2 -70 -19 0 -10 9 -21 20 -24 18 -4 13 -16 -47
-128 -74 -140 -86 -157 -117 -161 -11 -2 -21 -10 -21 -18 0 -13 26 -15 161
-18 l161 -2 29 42 c16 24 33 46 38 50 5 3 -2 8 -15 10 -15 3 -33 -4 -49 -19
-19 -17 -39 -23 -78 -24 -29 -1 -55 0 -58 4 -9 9 115 244 133 251 22 9 28 0
13 -19 -25 -31 40 -115 95 -121 11 -2 37 -5 58 -8 20 -2 37 -3 37 -1 0 2 3 10
6 18 4 11 -1 13 -23 10 -25 -5 -26 -4 -13 9 8 8 35 22 60 31 25 9 60 33 79 52
18 19 38 35 46 35 7 0 18 7 25 16 8 8 22 20 33 26 20 11 20 10 1 -15 -10 -14
-85 -87 -166 -162 -103 -94 -157 -137 -179 -142 -20 -4 -38 -16 -48 -34 -9
-15 -25 -30 -36 -33 -14 -4 -17 -8 -9 -16 13 -13 54 7 54 25 0 7 34 12 88 14
94 3 112 10 88 34 -14 14 -12 19 24 51 37 33 45 36 100 36 l60 0 0 -36 c0 -23
-6 -41 -17 -49 -35 -26 -4 -36 100 -35 56 1 126 -2 155 -6 125 -17 262 61 262
150 0 23 -12 43 -51 82 l-51 51 23 22 c16 14 36 21 65 21 39 0 43 -2 46 -27 5
-40 22 -38 51 5 21 33 30 39 51 35 14 -3 26 -7 26 -8 0 -2 -33 -65 -73 -141
-65 -123 -77 -140 -103 -144 -17 -3 -30 -12 -32 -23 -3 -15 7 -17 106 -17 85
0 111 3 115 14 7 18 -1 26 -25 26 -23 0 -23 0 12 70 l30 60 100 0 c55 0 100
-4 100 -8 0 -4 -15 -32 -32 -62 -22 -36 -41 -56 -58 -60 -14 -3 -26 -14 -28
-23 -3 -15 8 -17 95 -18 54 -1 104 -1 111 0 6 1 12 -6 12 -15 0 -10 -3 -14 -7
-11 -3 4 -12 2 -20 -4 -10 -9 -13 -8 -13 0 0 7 -5 9 -10 6 -7 -4 -6 -13 1 -26
12 -24 -7 -44 -53 -54 -15 -4 -30 -11 -33 -16 -11 -17 -27 -9 -22 11 5 19 2
20 -31 16 -21 -3 -28 -3 -17 0 27 8 43 24 25 24 -34 0 -58 -12 -53 -26 4 -10
-3 -14 -22 -14 -21 0 -26 4 -21 16 5 14 4 15 -9 4 -13 -11 -12 -15 12 -36 17
-15 22 -24 14 -24 -8 0 -22 -6 -30 -14 -9 -7 -36 -16 -61 -19 -25 -3 -39 -4
-32 -1 29 13 8 23 -38 18 -66 -6 -64 10 3 22 28 5 51 14 49 19 -2 6 -11 9 -20
8 -9 -2 -39 -3 -67 -3 -27 1 -70 1 -94 1 -30 0 -51 -7 -66 -21 -12 -11 -31
-20 -42 -20 -12 0 -33 -4 -46 -9 -20 -8 -27 -6 -31 5 -3 9 -4 20 0 25 6 11 -9
12 -20 2 -4 -4 -24 -8 -44 -10 -20 -1 -56 -3 -79 -5 -24 -2 -43 -1 -43 3 0 5
79 15 193 24 40 3 60 25 23 25 -25 0 -28 3 -24 24 5 23 3 24 -31 19 -45 -7
-68 -23 -49 -34 9 -6 7 -8 -7 -8 -11 0 -47 -3 -80 -6 -50 -4 -55 -3 -28 5 51
16 45 25 -15 23 -31 -1 -62 3 -69 9 -9 7 -17 7 -25 0 -7 -5 -21 -6 -32 -3 -14
5 -3 11 39 21 47 11 53 15 36 22 -12 4 -59 9 -105 10 -104 2 -139 -15 -131
-62 4 -22 1 -30 -10 -30 -8 0 -15 5 -15 12 0 7 -7 5 -18 -5 -15 -14 -27 -15
-85 -5 -68 11 -84 25 -22 20 60 -6 48 16 -12 23 -32 3 -78 12 -103 19 -48 15
-70 11 -47 -7 8 -7 17 -20 21 -31 5 -16 3 -17 -21 -11 -16 3 -29 11 -31 16 -2
5 -11 9 -19 9 -9 0 -13 6 -9 15 6 17 4 18 -18 9 -12 -4 -14 -10 -6 -18 7 -10
-5 -15 -48 -23 -31 -6 -66 -14 -77 -18 -17 -6 -18 -5 -5 5 12 9 9 11 -15 7
-27 -5 -28 -4 -10 9 10 8 27 14 36 14 10 0 21 5 24 10 3 6 -2 10 -13 10 -10 0
-36 8 -56 18 -30 15 -35 20 -21 25 9 4 25 7 35 7 20 0 90 75 90 97 0 8 -10 17
-22 22 l-21 8 21 21 22 22 -25 0 c-31 0 -32 13 -2 28 l22 11 -23 0 c-13 1 -20
5 -17 11 3 6 -5 10 -19 10 -23 0 -25 -3 -16 -24 8 -22 6 -25 -26 -30 -24 -5
-38 -15 -49 -35 -8 -16 -21 -31 -30 -34 -8 -4 -15 -12 -15 -18 0 -8 4 -8 15 1
12 10 18 10 32 -1 9 -8 18 -13 20 -11 1 1 8 2 15 2 8 0 9 -3 2 -10 -5 -5 -37
-11 -70 -12 -104 -5 -146 44 -105 123 36 68 125 130 187 128 16 0 22 -3 14 -6
-8 -2 -22 -7 -30 -10 -8 -3 -20 -7 -27 -8 -6 -2 -19 -8 -30 -14 -16 -9 -14
-10 12 -10 17 0 39 6 49 14 11 8 28 15 37 15 10 0 25 8 35 17 13 13 19 14 22
5 2 -7 8 -10 13 -6 21 13 49 -8 49 -37 0 -44 23 -36 59 23 29 46 31 53 17 64
-9 6 -40 15 -68 18 -66 9 -47 22 27 19 31 -1 66 2 76 6 23 8 75 6 107 -4z
m-423 -23 c-6 -5 -40 -21 -76 -36 -117 -48 -197 -146 -186 -229 9 -70 72 -105
205 -116 l75 -6 -26 -31 c-25 -30 -29 -31 -59 -20 -18 6 -39 15 -47 20 -10 6
-12 5 -7 -2 7 -12 -23 -32 -48 -32 -9 0 -16 7 -16 15 0 20 -9 19 -45 -5 -16
-12 -46 -28 -65 -37 -29 -13 -32 -17 -15 -21 11 -2 23 -9 27 -16 5 -7 8 -4 8
8 0 13 4 16 13 9 10 -7 132 -10 132 -3 0 2 10 4 23 5 46 5 19 -14 -50 -35 -40
-12 -90 -31 -110 -41 -21 -11 -41 -19 -45 -18 -5 1 -10 1 -13 -1 -25 -9 -55
-8 -62 2 -6 9 -10 7 -14 -9 -4 -13 -13 -23 -20 -23 -8 0 -14 -4 -14 -8 0 -4
28 -5 63 -1 34 3 69 3 77 -1 8 -4 30 -5 48 -3 43 7 41 -3 -5 -22 -51 -22 -35
-29 22 -10 26 9 49 14 51 12 3 -3 -19 -19 -48 -36 -39 -22 -47 -31 -31 -31 12
0 25 5 29 11 4 7 21 8 43 5 24 -5 31 -4 22 3 -10 6 2 12 43 21 71 14 97 7 36
-10 -45 -13 -45 -14 -15 -20 17 -4 45 -5 63 -2 20 3 32 0 32 -7 0 -7 20 -11
53 -11 47 -1 50 -2 29 -13 -32 -18 -10 -37 37 -30 35 4 35 4 16 -12 -19 -16
-18 -16 20 -9 l40 7 -25 -22 -25 -22 30 6 c17 3 53 8 80 10 37 3 43 2 25 -4
-14 -5 -37 -9 -51 -10 -34 -1 -79 -39 -60 -50 10 -7 8 -11 -9 -16 -22 -7 -20
-8 16 -21 21 -8 53 -14 69 -15 26 -1 24 -2 -15 -12 -62 -16 -60 -33 3 -36 60
-3 78 -11 24 -11 -21 0 -37 -4 -37 -10 0 -15 61 -11 90 5 36 20 47 18 21 -4
-12 -11 -44 -25 -72 -31 -37 -9 -47 -15 -40 -24 6 -7 12 -21 14 -32 1 -10 6
-24 9 -29 4 -6 3 -17 -3 -25 -13 -23 -11 -57 5 -63 8 -3 16 -21 18 -39 2 -26
7 -32 22 -30 11 2 15 -1 11 -7 -3 -6 -11 -11 -16 -11 -6 0 -18 -7 -26 -16 -14
-13 -14 -17 -2 -25 8 -5 22 -9 31 -9 9 0 20 -4 23 -10 3 -6 -4 -10 -17 -10
-25 0 -82 -33 -72 -42 3 -3 1 -9 -5 -13 -6 -3 -11 1 -11 9 0 9 -3 16 -7 16
-10 0 -63 -62 -63 -74 0 -19 -54 -66 -75 -66 -12 0 -35 -12 -50 -26 -46 -43
-83 -53 -196 -53 -171 -2 -349 11 -317 21 14 5 29 15 31 22 7 19 -53 15 -117
-8 -61 -21 -71 -13 -26 22 34 26 68 61 107 110 l18 24 40 -38 c167 -158 430
-116 552 87 93 155 76 327 -44 447 -77 77 -129 97 -248 97 -83 0 -109 -4 -149
-23 -27 -12 -51 -21 -52 -19 -2 2 -13 53 -25 113 -11 60 -29 127 -40 150 -10
22 -19 48 -19 58 0 9 -7 28 -16 41 -9 14 -13 25 -9 25 4 0 2 6 -4 14 -9 11 -8
18 4 30 9 9 23 16 31 16 8 0 12 5 9 10 -9 14 -21 12 -40 -6 -16 -16 -30 -11
-37 12 -3 11 84 63 204 121 44 22 57 33 58 51 0 12 9 39 20 59 11 21 20 43 20
50 0 7 7 13 15 13 9 0 12 6 9 15 -5 11 -2 13 12 8 13 -5 15 -3 9 7 -5 9 -4 11
3 6 7 -4 22 10 37 34 25 40 26 40 80 39 31 -1 58 1 62 4 3 4 11 7 17 7 6 0 6
-3 1 -8z m1247 -20 c-78 -57 -92 -74 -92 -110 0 -29 8 -43 45 -79 25 -23 45
-52 45 -63 0 -26 -48 -50 -100 -50 -40 0 -41 1 -38 32 5 51 -25 49 -59 -4 -22
-33 -33 -42 -51 -40 -30 4 -30 6 -35 142 -4 135 -3 144 24 130 14 -8 42 -5
106 11 49 11 93 24 98 29 11 9 41 17 65 18 10 1 7 -5 -8 -16z m-3403 -149
c-69 -74 -92 -129 -110 -258 -10 -79 -7 -144 16 -300 5 -29 4 -28 -8 5 -11 28
-20 36 -45 38 -27 3 -31 0 -26 -15 4 -14 4 -15 -4 -3 -13 21 -24 103 -16 123
7 20 40 23 47 5 3 -7 6 20 6 61 l1 73 -25 -6 c-18 -5 -25 -2 -25 9 0 8 5 15
11 15 8 0 9 4 0 13 -14 17 -4 27 25 27 13 0 26 5 30 11 4 8 -3 9 -25 4 -33 -7
-39 2 -18 24 10 11 9 13 -6 8 -15 -6 -17 -3 -12 16 12 38 59 91 101 112 23 11
55 32 73 48 46 39 51 34 10 -10z m-194 -71 c-6 -4 -27 -21 -48 -36 -51 -38
-93 -97 -114 -162 -20 -65 -38 -71 -28 -11 l7 42 -30 -35 c-27 -31 -31 -33
-48 -20 -16 13 -17 13 -12 -2 4 -9 1 -19 -7 -21 -32 -13 -43 -226 -20 -422 l4
-40 -15 45 c-34 103 -36 294 -4 380 6 14 11 34 13 45 9 59 69 126 118 131 18
2 43 14 55 25 30 28 117 88 129 88 5 1 5 -2 0 -7z m-2837 -460 c6 -2 12 -10
12 -18 0 -8 6 -14 14 -14 8 0 16 -7 20 -15 3 -9 18 -15 38 -15 25 0 29 -3 18
-10 -8 -5 -32 -7 -52 -3 -23 3 -44 1 -52 -6 -7 -6 -22 -8 -31 -4 -12 4 -16 3
-11 -5 4 -7 29 -9 74 -5 74 6 78 -9 7 -26 l-40 -9 39 -1 c22 -1 36 -4 33 -7
-9 -9 -106 -6 -120 3 -13 9 -18 9 -86 12 -37 1 -42 3 -31 16 10 12 10 15 -4
15 -9 0 -16 -7 -16 -15 0 -13 -4 -14 -20 -5 -11 6 -20 7 -20 3 0 -4 -26 -9
-58 -9 -31 -1 -48 1 -37 3 11 3 27 12 37 20 9 8 37 15 62 16 46 2 58 19 18 25
-12 2 -22 8 -22 13 0 9 58 7 105 -4 11 -2 29 0 40 6 22 12 55 10 70 -4 5 -5
16 -9 24 -9 11 0 10 4 -4 20 -13 14 -31 20 -61 20 -24 0 -46 5 -50 11 -6 10
74 11 104 1z m4590 -372 c40 -18 42 -21 31 -41 -15 -29 -6 -152 14 -202 15
-36 15 -37 -22 -94 -61 -94 -153 -143 -271 -143 -88 0 -425 82 -434 106 -9 25
-150 81 -251 100 -19 3 -35 9 -35 13 1 12 91 61 113 61 42 0 223 30 297 50 41
10 163 55 270 99 207 85 209 86 288 51z m-1963 -425 c26 -44 26 -71 0 -61 -8
3 -15 0 -17 -6 -2 -6 -65 -19 -139 -29 -73 -10 -145 -21 -159 -25 -49 -14 -5
15 140 90 80 41 146 75 147 75 1 1 14 -19 28 -44z m-2404 -137 c3 -5 13 -6 22
-2 9 3 17 2 17 -4 0 -12 -24 -22 -51 -22 -11 0 -29 -8 -40 -19 -34 -32 -189
-52 -189 -24 0 9 -9 11 -32 6 -22 -4 -29 -3 -24 5 4 7 16 12 26 12 10 0 21 4
24 9 3 4 20 11 37 15 18 3 29 9 26 12 -7 7 -133 -34 -162 -53 -17 -11 -17 -13
-2 -13 32 0 17 -19 -24 -30 -46 -13 -69 -8 -69 14 0 23 224 102 259 91 23 -7
53 4 45 16 -7 12 129 -1 137 -13z m2153 -69 c-3 -5 7 -9 23 -10 54 -2 63 -4
65 -14 2 -6 -48 -11 -134 -12 -80 -1 -145 -6 -158 -13 -12 -6 -33 -10 -48 -9
-15 2 -33 0 -40 -4 -6 -5 -12 -5 -12 0 0 10 -97 8 -124 -3 -22 -9 -50 6 -54
30 -3 12 4 16 28 16 18 0 44 9 59 19 16 12 48 21 77 23 75 5 324 -14 318 -23z
m496 11 c108 -25 143 -25 243 1 51 13 97 19 122 15 22 -3 82 -6 133 -8 51 -1
95 -5 98 -10 3 -4 -2 -8 -11 -8 -9 0 -13 -5 -9 -11 4 -7 21 -9 44 -5 20 3 40
3 43 -1 12 -11 -41 -31 -100 -39 -32 -4 -61 -12 -65 -18 -5 -8 -10 -8 -18 0
-7 7 -26 8 -51 4 -43 -8 -56 -16 -45 -27 3 -4 12 -1 18 5 14 14 38 16 38 4 0
-5 -26 -15 -57 -22 -32 -8 -67 -19 -78 -26 -12 -7 -49 -11 -95 -9 -75 3 -214
-14 -237 -28 -8 -5 -13 -3 -13 3 0 6 8 13 18 16 9 3 30 12 47 19 26 12 27 15
11 21 -12 5 -22 2 -28 -9 -6 -11 -22 -17 -44 -17 -31 0 -35 -3 -32 -22 2 -14
-3 -24 -12 -26 -21 -4 -21 39 -1 54 13 10 12 13 -5 21 -10 6 -25 8 -31 6 -7
-3 -13 0 -13 6 0 6 9 11 19 11 24 0 32 12 21 29 -6 11 -17 12 -51 3 -28 -7
-45 -8 -47 -2 -2 6 -15 7 -28 4 -15 -4 -24 -2 -24 5 0 6 5 11 12 11 6 0 8 3 5
6 -4 4 -14 1 -22 -6 -9 -8 -28 -14 -43 -16 -15 -1 -21 0 -14 3 18 7 15 23 -6
23 -10 0 -24 6 -30 12 -10 10 -14 8 -18 -10 -8 -28 -23 -29 -21 -1 2 24 32 45
42 29 9 -14 43 -12 47 3 4 11 31 14 183 25 11 1 58 -7 105 -18z"/>
<path d="M1323 2046 c-99 -19 -165 -42 -255 -88 l-78 -40 0 -204 0 -204 93
-44 c264 -128 549 -124 810 11 58 31 67 39 67 63 0 16 -6 31 -12 34 -10 5 -10
7 0 12 9 4 12 48 12 170 l0 164 -92 45 c-51 24 -129 54 -173 65 -104 27 -276
34 -372 16z m102 -216 c0 -23 -4 -25 -57 -28 -54 -3 -58 -5 -58 -27 0 -22 5
-24 53 -27 45 -3 52 -6 55 -25 3 -22 0 -23 -53 -23 l-56 0 3 -32 c3 -33 4 -33
61 -36 53 -3 57 -5 57 -27 0 -25 -1 -25 -90 -25 l-90 0 0 133 c0 74 2 136 5
138 2 3 42 5 87 5 82 -1 83 -1 83 -26z m102 14 c2 -5 21 -40 43 -79 l40 -70 0
78 0 77 30 0 30 0 0 -136 0 -135 -32 3 c-28 3 -36 11 -72 78 l-41 75 -3 -77
-3 -78 -29 0 -30 0 0 133 c0 74 3 136 6 139 8 9 58 2 61 -8z m276 -53 c18 -31
37 -65 43 -76 6 -15 10 0 12 58 l3 77 29 0 30 0 0 -135 0 -135 -32 0 c-31 0
-36 5 -73 77 l-40 76 -3 -77 -3 -76 -29 0 -30 0 0 133 c0 74 2 136 5 139 3 3
17 3 30 0 18 -3 35 -21 58 -61z m-609 46 c9 -7 20 -32 23 -55 8 -59 -14 -89
-71 -97 l-45 -7 -3 -47 c-3 -44 -4 -46 -35 -49 l-33 -3 0 135 0 136 73 0 c44
0 80 -5 91 -13z"/>
<path d="M4750 623 c-14 -7 -33 -10 -42 -7 -50 15 -95 3 -188 -53 -22 -13 -23
-14 -3 -10 17 4 20 1 16 -12 -3 -9 -13 -22 -21 -28 -10 -8 -11 -13 -4 -13 7 0
12 -9 12 -20 0 -20 12 -24 57 -21 12 1 25 -4 30 -12 4 -8 19 -17 33 -19 14 -1
25 -9 25 -15 0 -7 3 -13 8 -13 4 0 23 0 43 0 19 0 33 4 30 9 -3 4 5 6 19 4 25
-5 24 -33 -2 -33 -8 0 -11 -5 -7 -11 4 -8 9 -8 17 0 6 6 18 11 27 11 23 0 91
50 84 61 -3 6 9 24 27 40 l34 30 -27 -4 c-34 -5 -37 10 -5 22 20 8 20 10 4 16
-13 6 -17 14 -13 31 4 16 2 24 -6 25 -7 1 -17 2 -23 4 -5 1 -23 3 -38 3 -16 1
-26 6 -23 11 9 15 -37 18 -64 4z"/>
<path d="M1631 2985 c-17 -19 -39 -35 -50 -35 -11 0 -26 -10 -32 -22 -7 -13
-17 -26 -23 -30 -7 -5 -5 -8 6 -8 9 0 21 -8 27 -17 8 -15 12 -11 26 25 l17 42
25 -24 c14 -14 22 -29 19 -34 -8 -14 22 -23 42 -14 9 5 37 10 62 11 34 1 50 8
67 27 20 22 28 24 72 18 47 -6 50 -8 66 -49 19 -52 52 -65 104 -39 21 10 44
14 63 10 21 -4 40 -1 56 10 23 15 24 15 17 -5 -5 -18 -2 -21 24 -21 35 0 81
19 81 33 0 5 11 6 24 3 35 -9 120 23 104 39 -17 17 -68 22 -92 10 -22 -12 -32
-12 -61 1 -42 17 -46 34 -7 34 15 0 49 12 76 26 54 29 88 24 101 -15 7 -25 18
-27 34 -7 9 11 20 12 44 5 18 -5 33 -9 35 -9 2 0 2 15 0 33 l-3 32 -147 3
c-120 2 -148 0 -148 -11 0 -43 -89 -64 -112 -27 -7 11 -24 20 -38 20 -14 0
-32 4 -40 10 -9 5 -19 5 -25 0 -7 -6 -25 -6 -46 0 -18 6 -102 10 -185 10
l-152 0 -31 -35z"/>
<path d="M2624 2998 c9 -12 16 -30 16 -40 0 -9 18 -36 40 -60 22 -24 40 -48
40 -55 0 -7 9 -17 19 -23 11 -5 23 -19 26 -30 4 -11 10 -18 15 -15 5 3 12 -5
15 -18 6 -21 14 -25 67 -31 106 -11 197 -7 229 9 42 22 51 52 33 117 -9 29
-19 64 -22 77 -4 14 -22 33 -40 44 -30 18 -35 18 -77 4 l-44 -16 -25 30 c-22
25 -31 29 -78 29 -34 0 -62 -6 -77 -17 -22 -15 -25 -15 -36 0 -9 12 -27 17
-64 17 -52 0 -52 0 -37 -22z"/>
</g>
</svg>
