<?xml version="1.0" standalone="no"?>
<!DOCTYPE svg PUBLIC "-//W3C//DTD SVG 20010904//EN"
 "http://www.w3.org/TR/2001/REC-SVG-20010904/DTD/svg10.dtd">
<svg version="1.0" xmlns="http://www.w3.org/2000/svg"
 width="714.000000pt" height="274.000000pt" viewBox="0 0 714.000000 274.000000"
 preserveAspectRatio="xMidYMid meet">
<metadata>
Created by potrace 1.15, written by Peter Selinger 2001-2017
</metadata>
<g transform="translate(0.000000,274.000000) scale(0.100000,-0.100000)"
fill="#000000" stroke="none">
<path d="M0 1370 l0 -1370 3570 0 3570 0 0 1370 0 1370 -3570 0 -3570 0 0
-1370z m1110 1108 c-1 -7 -38 -65 -83 -128 l-83 -115 -326 -3 -326 -2 -82 117
c-45 65 -85 123 -87 130 -4 10 95 13 491 13 390 0 496 -3 496 -12z m929 -237
c96 -137 174 -251 175 -254 1 -3 -77 -119 -173 -256 l-174 -251 -150 0 c-131
0 -148 2 -143 16 3 8 73 111 154 227 82 117 157 224 166 238 l16 26 -170 243
c-93 134 -170 247 -170 252 0 4 66 8 148 8 l147 0 174 -249z m1792 -251 c192
-272 348 -498 348 -503 1 -4 -67 -6 -150 -5 l-151 3 -348 495 c-191 272 -345
498 -343 503 3 4 70 6 151 5 l146 -3 347 -495z m396 305 c74 -104 132 -197
130 -205 -2 -8 -35 -59 -73 -113 -53 -76 -71 -95 -80 -85 -17 19 -414 587
-414 593 0 3 69 4 152 3 l153 -3 132 -190z m1741 182 c-5 -21 -682 -986 -690
-984 -13 4 -148 202 -146 214 2 6 125 185 273 397 l270 386 148 0 c116 0 148
-3 145 -13z m-3014 -106 c36 -52 66 -99 66 -104 0 -5 -122 -184 -272 -398
l-272 -389 -149 0 c-126 0 -148 2 -144 15 5 13 605 874 664 953 14 19 29 30
33 25 4 -4 38 -50 74 -102z m2061 -73 c70 -100 129 -188 132 -195 4 -11 -66
-123 -126 -202 l-18 -24 -58 81 c-31 45 -60 82 -63 82 -4 -1 -92 -124 -197
-275 -104 -151 -193 -273 -197 -272 -9 3 -148 199 -148 209 0 5 39 64 86 131
47 67 131 187 187 267 204 291 268 380 272 380 2 0 61 -82 130 -182z m1340 86
c36 -53 69 -102 72 -110 3 -7 -115 -186 -268 -404 l-273 -390 -149 0 c-126 0
-148 2 -144 14 3 8 149 219 323 468 337 482 363 518 369 518 2 0 33 -43 70
-96z m-4850 -164 c87 -124 158 -229 158 -235 0 -5 -78 -121 -173 -257 l-174
-248 -324 0 c-257 0 -323 3 -319 13 2 7 41 65 86 129 l82 118 177 2 176 3 79
110 c43 61 81 115 84 122 2 6 -34 66 -81 132 -47 67 -86 123 -86 126 0 12 150
218 155 213 2 -2 74 -104 160 -228z m1868 -447 c108 -155 197 -284 197 -287 0
-4 -68 -5 -152 -4 l-151 3 -86 123 -85 122 -99 0 c-54 0 -97 4 -95 9 2 5 57
86 123 180 111 158 121 169 136 153 8 -9 104 -144 212 -299z m3401 13 c113
-162 206 -297 206 -300 0 -4 -67 -6 -149 -6 l-150 0 -88 125 -88 125 -98 0
c-54 0 -97 4 -95 9 9 24 243 349 249 345 4 -2 100 -136 213 -298z m-6014 194
c0 -6 -77 -120 -171 -255 l-172 -245 -149 0 c-116 0 -149 3 -145 13 5 14 312
454 335 480 13 15 34 17 159 17 89 0 143 -4 143 -10z m-83 -990 c61 -26 116
-83 145 -147 11 -25 18 -46 16 -48 -1 -1 -46 -12 -98 -24 -67 -15 -96 -18 -99
-10 -10 31 -65 79 -98 85 -94 18 -159 -43 -169 -157 -14 -144 30 -228 123
-236 64 -6 107 21 135 85 11 26 21 48 22 49 1 1 44 -11 96 -26 106 -32 104
-29 68 -113 -23 -54 -89 -120 -145 -144 -21 -9 -78 -18 -128 -21 -158 -9 -269
35 -334 134 -45 67 -61 132 -61 240 0 155 44 246 150 310 71 43 116 53 230 49
72 -2 108 -9 147 -26z m5340 0 c61 -26 116 -83 145 -147 11 -25 18 -46 16 -48
-1 -1 -46 -12 -98 -24 -67 -15 -96 -18 -99 -10 -10 31 -65 79 -98 85 -94 18
-159 -43 -169 -157 -14 -144 30 -228 123 -236 64 -6 107 21 135 85 11 26 21
48 22 49 1 1 44 -11 96 -26 106 -32 104 -29 68 -113 -23 -54 -89 -120 -145
-144 -21 -9 -78 -18 -128 -21 -158 -9 -269 35 -334 134 -45 67 -61 132 -61
240 0 155 44 246 150 310 71 43 116 53 230 49 72 -2 108 -9 147 -26z m-4837
-250 l0 -270 170 0 170 0 0 -90 0 -90 -285 0 -285 0 0 360 0 360 115 0 115 0
0 -270z m1040 185 l0 -85 -185 0 -185 0 0 -50 0 -50 170 0 170 0 0 -75 0 -75
-170 0 -170 0 0 -65 0 -65 190 0 190 0 0 -85 0 -85 -305 0 -305 0 0 360 0 360
300 0 300 0 0 -85z m695 -261 c72 -190 131 -352 133 -360 3 -12 -16 -14 -114
-12 l-118 3 -16 55 -16 55 -124 3 -125 2 -18 -60 -17 -60 -116 0 c-107 0 -116
1 -109 18 4 9 60 159 125 332 65 173 123 327 129 343 l11 27 122 0 123 0 130
-346z m705 336 c101 -19 153 -82 153 -185 0 -91 -35 -144 -122 -183 -37 -17
-40 -21 -23 -26 37 -12 91 -84 144 -191 29 -58 55 -105 59 -105 3 0 64 156
136 348 l130 347 124 3 124 2 130 -346 c72 -190 131 -352 133 -360 3 -12 -16
-14 -114 -12 l-118 3 -16 55 -16 55 -124 3 -125 2 -18 -60 -17 -60 -240 0
-239 0 -68 128 c-74 140 -100 172 -138 172 l-25 0 0 -150 0 -150 -115 0 -115
0 0 360 0 360 224 0 c123 0 247 -5 276 -10z m1405 -187 l130 -196 3 196 2 197
105 0 105 0 0 -360 0 -360 -107 0 -108 1 -125 186 -125 185 -3 -186 -2 -186
-110 0 -110 0 0 360 0 360 108 0 107 0 130 -197z m1865 112 l0 -85 -185 0
-185 0 0 -50 0 -50 170 0 170 0 0 -75 0 -75 -170 0 -170 0 0 -65 0 -65 190 0
190 0 0 -85 0 -85 -305 0 -305 0 0 360 0 360 300 0 300 0 0 -85z"/>
<path d="M2619 683 l-35 -118 69 -3 c38 -2 72 -1 74 2 6 6 -56 218 -66 229 -4
4 -23 -45 -42 -110z"/>
<path d="M3350 799 l0 -72 80 5 c89 5 120 23 120 67 0 53 -33 71 -129 71 l-71
0 0 -71z"/>
<path d="M4179 683 l-35 -118 69 -3 c38 -2 72 -1 74 2 6 6 -56 218 -66 229 -4
4 -23 -45 -42 -110z"/>
</g>
</svg>
