<?xml version="1.0" standalone="no"?>
<!DOCTYPE svg PUBLIC "-//W3C//DTD SVG 20010904//EN"
 "http://www.w3.org/TR/2001/REC-SVG-20010904/DTD/svg10.dtd">
<svg version="1.0" xmlns="http://www.w3.org/2000/svg"
 width="950.000000pt" height="372.000000pt" viewBox="0 0 950.000000 372.000000"
 preserveAspectRatio="xMidYMid meet">
<metadata>
Created by potrace 1.15, written by Peter Selinger 2001-2017
</metadata>
<g transform="translate(0.000000,372.000000) scale(0.100000,-0.100000)"
fill="#000000" stroke="none">
<path d="M0 2860 c0 -599 3 -860 11 -860 5 0 8 4 4 9 -3 5 1 15 7 23 7 7 22
32 33 55 11 24 26 43 33 43 15 0 68 60 65 72 -2 4 6 8 17 8 13 0 18 5 14 15
-4 9 0 15 10 15 9 0 16 8 16 20 0 11 12 26 29 35 17 8 38 28 47 44 9 16 23 27
29 24 7 -2 15 3 18 11 4 9 14 16 22 16 9 0 13 4 10 10 -9 15 41 60 74 66 19 4
28 11 24 20 -3 8 5 16 23 20 16 4 35 13 42 21 7 7 22 13 32 13 10 0 21 4 24 9
3 5 23 12 43 16 21 4 41 12 45 18 7 12 118 48 129 41 4 -2 10 4 12 13 3 11 6
7 7 -12 4 -42 17 137 20 275 2 63 5 105 7 94 5 -25 39 -29 87 -9 17 7 39 11
49 10 9 -2 15 0 12 4 -8 13 38 29 98 35 32 2 64 9 70 14 7 5 31 13 54 17 24 4
46 11 49 16 3 6 14 7 24 4 11 -4 22 0 27 9 10 18 98 37 110 25 5 -5 20 -3 33
4 14 7 42 11 63 10 26 -2 39 1 43 12 4 10 19 15 45 15 21 0 49 5 63 11 20 9
29 9 41 -1 9 -7 15 -8 15 -2 0 6 14 13 30 17 17 4 37 13 45 21 9 9 23 12 40 8
l25 -6 1 -177 c0 -97 4 -196 8 -221 5 -25 9 -35 10 -23 1 16 6 21 16 17 9 -4
15 0 15 7 0 11 2 11 10 -1 8 -12 13 -13 30 -2 23 14 60 16 60 3 0 -4 13 -8 30
-7 16 1 30 4 30 9 0 4 10 7 23 7 12 0 29 4 37 9 8 6 18 7 23 4 11 -7 213 -6
252 1 56 11 385 15 385 5 0 -5 9 -4 19 3 15 9 23 9 35 -1 9 -8 35 -14 59 -14
99 0 137 4 137 13 0 6 -14 25 -31 43 l-31 32 43 13 c41 11 45 11 62 -10 10
-13 16 -17 12 -10 -4 7 0 12 9 12 9 0 16 -7 16 -16 0 -12 -7 -15 -25 -12 -20
4 -23 2 -15 -8 8 -9 7 -15 -6 -22 -13 -7 -14 -11 -3 -17 8 -5 14 -4 17 4 3 9
9 8 23 -5 15 -14 25 -15 58 -6 22 5 43 7 46 3 8 -7 55 -9 56 -1 0 3 2 20 4 38
3 35 20 61 31 49 4 -4 2 -18 -4 -31 -9 -21 -7 -28 13 -50 19 -21 29 -24 58
-19 20 3 68 -2 109 -11 85 -19 136 -22 161 -11 13 5 22 2 32 -11 12 -16 17
-17 34 -7 15 10 20 10 24 0 2 -7 18 -11 40 -9 20 2 45 -3 56 -10 11 -8 36 -12
60 -10 l41 4 0 108 c0 60 3 116 6 125 5 11 0 18 -15 22 -14 3 -20 11 -17 20 4
8 1 11 -5 7 -7 -4 -9 0 -5 14 11 32 -28 35 -53 4 -24 -31 -27 -29 -39 25 -8
33 -7 40 3 36 8 -2 21 7 31 22 14 21 23 25 43 20 14 -3 40 -8 56 -10 65 -10
75 -15 68 -33 -7 -16 -6 -16 11 1 9 9 21 17 26 17 5 0 7 13 4 29 -6 29 -6 29
32 24 43 -6 118 -49 109 -63 -3 -6 3 -10 14 -10 25 0 38 20 20 31 -11 7 -11 9
-1 9 7 0 10 4 7 10 -3 5 -23 10 -43 10 -28 0 -33 3 -22 10 13 9 13 11 0 20 -8
6 -27 13 -42 17 -16 3 -28 8 -28 10 0 11 27 29 50 32 52 7 146 -4 155 -19 8
-14 54 1 48 16 -3 8 1 14 11 14 9 0 16 8 16 20 0 11 5 20 11 20 6 0 8 7 5 16
-5 12 0 15 22 14 15 -1 31 -2 36 -1 15 2 -26 41 -43 41 -14 0 -14 2 -1 10 8 5
17 5 20 1 8 -11 42 -22 35 -11 -3 5 3 14 14 20 17 9 23 6 37 -15 12 -18 20
-22 29 -15 8 6 16 6 24 -3 11 -10 12 -8 6 11 -5 16 -2 22 10 22 9 0 14 4 11 9
-10 16 5 41 25 41 10 0 19 -4 19 -8 0 -5 11 -14 25 -20 14 -6 25 -16 25 -22 0
-6 -4 -8 -10 -5 -6 3 -10 1 -10 -4 0 -6 6 -11 13 -11 6 0 26 -11 42 -25 28
-23 29 -24 8 -25 -13 0 -23 -4 -23 -10 0 -5 -7 -7 -15 -4 -9 4 -15 0 -15 -10
0 -9 7 -16 16 -16 20 0 13 -24 -9 -28 -9 -2 -31 7 -49 19 -26 19 -31 20 -25 5
5 -12 3 -15 -5 -10 -7 4 -27 7 -45 6 -22 -2 -35 2 -39 13 -7 18 -70 21 -87 3
-21 -22 -10 -78 15 -78 5 0 8 7 4 15 -3 8 -1 15 4 15 6 0 10 -7 10 -15 0 -8 8
-15 18 -14 10 0 12 3 5 6 -7 2 -13 9 -13 14 0 6 8 5 20 -1 11 -6 18 -15 15
-20 -5 -8 41 -44 70 -53 6 -2 4 -10 -4 -20 -10 -13 -18 -14 -33 -6 -11 6 -22
9 -24 6 -3 -2 10 -10 28 -17 18 -7 41 -20 50 -28 9 -8 21 -11 27 -7 7 3 8 0 5
-9 -7 -18 17 -16 40 3 9 8 19 11 23 8 3 -4 18 2 33 13 16 11 38 20 51 20 22 0
22 0 3 16 -18 15 -18 15 4 9 16 -5 22 -2 22 9 0 9 5 16 11 16 6 0 8 -7 5 -17
-6 -13 -1 -12 17 5 19 18 31 21 52 16 20 -5 24 -9 13 -16 -9 -7 -5 -8 12 -4
14 3 28 6 32 6 4 0 8 15 10 33 2 17 8 -58 12 -168 5 -110 11 -193 14 -185 7
21 23 30 54 30 15 0 30 5 34 11 3 6 15 9 25 6 11 -3 26 2 35 10 11 11 42 17
107 20 51 2 108 7 127 10 19 4 44 8 55 9 11 1 41 6 67 12 34 6 49 6 52 -2 3
-7 8 -7 14 3 5 7 14 11 19 8 6 -4 25 -2 44 3 18 6 74 12 123 15 55 3 93 10 98
18 6 9 8 9 8 -1 0 -10 16 -13 63 -11 34 2 66 5 72 8 20 11 254 23 268 14 5 -3
98 -4 206 -3 252 4 228 4 361 -4 114 -7 165 -12 165 -15 0 -2 11 -4 24 -7 14
-2 30 -9 37 -15 7 -6 18 -8 24 -4 5 3 10 1 10 -5 0 -6 5 -8 13 -4 8 5 8 2 -2
-9 -8 -11 -9 -17 -2 -17 15 0 36 35 62 103 17 45 26 56 38 51 9 -3 22 -7 29
-7 16 0 15 -12 -3 -47 -8 -16 -12 -35 -9 -43 3 -8 1 -18 -5 -22 -6 -3 -11 1
-11 10 0 9 -5 13 -11 9 -6 -3 -9 -15 -6 -25 3 -11 1 -16 -5 -13 -6 4 -8 -2 -3
-16 4 -12 3 -20 -1 -17 -5 3 -10 -7 -11 -21 l-1 -27 15 30 c9 17 22 34 29 38
8 4 14 12 14 18 0 5 11 22 25 37 14 15 25 21 25 14 0 -6 -4 -12 -10 -12 -5 0
-10 -8 -10 -17 0 -10 -9 -29 -20 -43 -11 -14 -20 -29 -20 -34 0 -5 -10 -36
-22 -69 -20 -55 -22 -58 -31 -36 -6 13 -9 27 -9 31 1 4 -6 4 -15 1 -9 -4 -14
-2 -11 3 3 5 16 42 28 82 11 40 29 81 39 91 10 10 21 30 25 45 5 22 3 26 -15
26 -14 0 -19 -5 -16 -14 3 -8 0 -20 -8 -26 -7 -6 -16 -23 -20 -37 -3 -15 -14
-38 -24 -52 -9 -14 -25 -52 -35 -83 -15 -53 -36 -78 -36 -44 0 14 -58 15 -81
1 -12 -8 -42 -11 -227 -21 -107 -5 -121 -8 -105 -20 17 -13 16 -14 -7 -11 -14
1 -28 7 -32 12 -5 6 -12 4 -18 -5 -8 -12 -10 -12 -10 5 -1 19 -1 19 -14 3 -9
-12 -26 -18 -52 -17 l-39 2 40 7 c35 6 32 7 -25 8 -46 0 -58 -2 -40 -8 22 -7
21 -8 -13 -9 -26 -1 -36 3 -31 10 4 7 1 10 -7 7 -8 -3 -13 -11 -12 -17 2 -7
-12 -11 -35 -10 -30 0 -33 2 -17 9 l20 9 -20 1 c-46 4 -110 -2 -113 -11 -2 -5
-8 -9 -13 -9 -6 0 -7 5 -4 10 8 13 -11 13 -35 0 -16 -8 -18 -8 -14 5 11 27
-32 17 -44 -11 -8 -15 -17 -22 -24 -18 -9 6 -9 9 0 12 7 2 12 7 12 11 0 5 -45
6 -99 3 -125 -6 -151 0 -151 33 0 23 3 25 40 23 21 -2 39 1 39 7 1 5 -7 10
-17 11 -45 2 -53 5 -47 14 8 14 -21 13 -47 -1 -21 -11 -21 -12 -2 -26 16 -12
17 -15 4 -23 -10 -7 -11 -10 -2 -10 6 0 12 -4 12 -9 0 -4 -11 -6 -25 -3 -20 3
-25 0 -25 -15 0 -15 -7 -19 -32 -19 -18 0 -98 -4 -178 -8 -80 -4 -152 -8 -160
-8 -8 -1 -18 -6 -22 -12 -5 -7 -8 -7 -8 2 0 7 -4 10 -10 7 -5 -3 -10 -10 -10
-16 0 -17 64 -49 100 -50 23 0 29 -3 18 -7 -9 -4 26 -8 78 -9 85 -2 105 -6
181 -39 46 -20 88 -33 92 -28 4 5 13 29 20 52 7 24 14 42 17 39 4 -3 -52 -229
-101 -407 -8 -30 -14 -66 -14 -80 0 -14 9 4 18 40 96 353 91 340 130 340 16 0
32 6 35 13 5 10 7 10 12 0 6 -14 124 -19 124 -5 0 5 -23 9 -51 9 -27 0 -53 4
-57 8 -4 3 -7 40 -7 81 0 54 4 75 14 79 8 3 17 2 20 -1 3 -4 0 -9 -6 -11 -9
-3 -13 -27 -12 -76 1 -40 3 -64 6 -54 3 12 13 17 34 15 30 -2 28 -12 -6 -21
-11 -3 -4 -5 15 -4 23 1 35 7 35 17 1 8 6 14 12 13 6 -1 18 12 27 30 8 18 16
28 17 22 3 -24 -4 -71 -12 -88 -6 -11 -6 -24 0 -35 10 -15 11 -15 17 6 4 15
12 21 21 18 8 -3 12 -2 9 3 -3 5 5 8 19 7 14 0 25 -3 25 -6 -1 -3 -7 -34 -15
-70 -16 -72 -18 -113 -4 -63 8 26 15 32 42 36 l32 4 -33 1 c-27 2 -32 5 -28
20 3 9 8 29 11 43 7 27 11 28 80 14 33 -7 37 -9 20 -17 -14 -6 -11 -6 11 -3
17 3 42 1 56 -4 29 -11 48 2 48 32 0 10 9 21 20 24 11 3 17 9 14 14 -3 5 6 9
19 9 14 0 27 -7 31 -15 3 -8 10 -15 15 -15 6 0 8 7 5 15 -4 8 -1 15 5 15 7 0
14 -7 17 -15 5 -13 18 -14 71 -9 80 7 79 -10 -1 -20 -30 -4 -87 -23 -126 -42
-56 -27 -76 -32 -86 -23 -8 6 -14 10 -15 8 -8 -44 -27 -235 -24 -239 3 -4 -7
-18 -20 -30 -14 -13 -25 -30 -25 -37 0 -16 -48 -93 -69 -110 -13 -11 -12 -13
7 -13 12 0 22 -4 22 -9 0 -15 -27 -20 -39 -8 -8 8 -11 7 -11 -6 0 -9 -6 -17
-14 -17 -24 0 -30 -20 -10 -34 16 -12 15 -14 -13 -26 -17 -8 -36 -23 -43 -34
-10 -17 -10 -19 1 -8 19 18 31 15 24 -7 -6 -21 9 -31 60 -40 6 -1 3 -5 -5 -11
-22 -14 -5 -23 19 -10 25 13 41 6 41 -18 0 -13 9 -17 36 -17 l35 0 -22 18
c-19 15 -21 22 -11 37 7 12 8 21 2 25 -16 10 -30 -4 -24 -23 5 -14 4 -15 -5
-2 -15 20 -14 57 2 69 6 6 25 21 42 34 16 14 34 40 41 58 10 29 11 21 7 -58
-3 -50 -2 -99 2 -110 4 -10 7 -35 6 -56 -2 -21 3 -45 9 -53 9 -10 9 -14 1 -14
-6 0 -11 -9 -11 -20 0 -17 7 -20 41 -20 24 0 38 -4 34 -10 -3 -6 1 -13 9 -16
9 -3 16 -11 16 -16 0 -6 -7 -8 -15 -4 -18 6 -19 -7 -4 -37 7 -12 8 -19 4 -15
-4 4 -14 1 -22 -7 -12 -12 -11 -18 4 -42 18 -26 18 -27 -2 -19 -35 13 -39 12
-46 -24 -7 -34 -7 -34 -8 10 0 25 -3 71 -5 102 -9 119 -47 114 -44 -6 1 -60 3
-66 15 -50 11 16 15 16 22 5 5 -8 8 -19 6 -25 -2 -6 -6 -25 -9 -43 -6 -34 -9
-32 87 -49 37 -6 37 -6 37 27 0 31 1 32 15 13 13 -17 14 -14 15 38 0 69 12
103 42 120 13 7 23 20 23 28 0 17 29 25 53 14 14 -6 11 -9 -13 -14 -26 -7 -24
-8 17 -9 45 -1 49 1 61 31 l13 32 13 -32 c7 -18 20 -32 28 -32 12 0 14 8 9 39
-5 31 -1 48 16 78 20 33 23 52 23 138 -1 86 -5 113 -33 194 -18 51 -40 107
-48 123 -15 29 -80 67 -115 68 -20 0 -33 57 -24 101 8 36 -12 99 -31 99 -8 0
-14 4 -14 9 0 5 30 12 68 16 37 3 78 8 92 10 14 2 61 9 105 15 44 6 116 18
159 26 44 8 81 12 84 9 6 -6 -15 -13 -53 -18 -16 -2 19 -5 78 -6 80 -1 116 3
137 14 19 10 30 11 30 5 0 -6 4 -9 10 -5 5 3 6 13 3 22 -5 11 -3 14 6 8 8 -5
11 -19 7 -40 -4 -19 -2 -36 3 -39 14 -9 41 34 100 157 35 74 58 111 71 114 11
3 20 13 20 22 0 14 -2 14 -11 1 -7 -10 -9 -11 -7 -2 2 8 6 12 9 10 15 -8 38
26 33 47 -3 13 -1 26 4 29 6 4 8 -2 5 -14 -4 -15 0 -20 16 -20 25 0 26 -8 6
-46 -8 -16 -12 -38 -8 -49 5 -17 4 -18 -11 -6 -14 12 -16 11 -16 -8 0 -11 4
-21 10 -21 5 0 7 -8 3 -17 -3 -10 21 9 53 42 32 33 52 52 45 43 -7 -9 -9 -23
-5 -29 4 -7 3 -9 -3 -6 -6 4 -13 1 -16 -6 -3 -8 6 -12 27 -13 17 -1 48 -6 69
-12 31 -8 36 -8 27 3 -6 7 -24 15 -41 19 -28 5 -29 7 -15 22 9 8 14 20 11 25
-10 15 16 10 43 -10 15 -10 47 -25 73 -33 41 -14 47 -14 67 2 11 10 18 20 15
24 -4 3 9 6 28 6 l34 1 -27 15 c-16 8 -28 19 -28 24 0 18 45 10 64 -11 l18
-21 26 23 27 24 -22 -26 c-18 -19 -20 -28 -11 -37 7 -7 19 -12 27 -12 14 0 14
1 1 10 -11 7 -1 10 35 9 47 0 93 -15 94 -31 1 -5 4 -8 9 -7 4 1 6 4 5 9 -3 12
69 28 112 25 22 -1 59 2 83 8 68 15 72 -5 7 -32 -58 -24 -71 -41 -31 -41 14 0
28 -5 31 -10 3 -6 -3 -10 -13 -10 -11 0 -25 -7 -32 -15 -7 -8 -19 -15 -28 -15
-18 0 -68 -16 -125 -39 l-38 -16 28 -8 c65 -18 182 -39 238 -43 132 -8 261 -5
290 6 89 35 195 45 195 19 0 -5 9 -9 20 -9 13 0 18 5 14 15 -7 16 4 19 23 7
25 -16 -11 -45 -63 -52 -49 -7 -49 -7 -16 -15 22 -5 31 -13 30 -24 -3 -14 12
-16 117 -16 100 0 120 -2 120 -15 0 -10 -14 -17 -40 -21 l-40 -6 48 -2 c52 -1
60 -16 18 -37 -30 -15 -14 -25 19 -12 24 10 37 12 130 22 29 3 34 2 15 -2 -18
-4 -31 -14 -31 -24 -2 -18 16 -23 60 -18 27 3 66 -9 66 -20 0 -6 -15 -10 -34
-10 -19 0 -41 -3 -50 -6 -13 -5 -12 -9 8 -25 13 -10 31 -19 39 -19 20 0 84
-27 91 -39 4 -5 0 -12 -6 -14 -7 -3 15 -6 50 -6 l62 -1 0 710 0 710 -4750 0
-4750 0 0 -860z m6464 -390 c17 13 51 -35 48 -66 -4 -26 34 -40 57 -21 11 10
13 9 9 -3 -5 -17 -79 -22 -90 -6 -4 6 -12 -2 -19 -17 -7 -15 -18 -27 -25 -27
-7 0 -29 -10 -49 -21 -20 -12 -37 -20 -39 -18 -5 5 19 187 25 193 2 3 18 12
34 20 30 16 30 16 33 -15 3 -24 6 -28 16 -19z"/>
<path d="M7755 2498 c-13 -56 -24 -78 -46 -96 -15 -12 -31 -37 -34 -54 -9 -39
-52 -97 -121 -160 l-50 -48 -86 -2 c-84 -3 -116 5 -89 21 9 6 10 11 2 15 -18
12 -12 36 15 61 l27 25 -33 0 c-20 0 -43 10 -62 25 -32 27 -67 32 -85 14 -9
-9 -7 -21 8 -50 23 -47 24 -45 -2 -52 -12 -3 -18 -10 -14 -16 3 -6 0 -9 -8 -5
-10 3 -17 -4 -21 -21 -5 -21 -11 -24 -31 -19 -15 4 -25 2 -25 -5 0 -6 6 -10
13 -9 6 2 11 -5 11 -14 -1 -13 6 -18 23 -18 18 0 24 -4 19 -15 -9 -25 22 -45
72 -46 26 0 56 -4 67 -9 16 -7 12 -9 -20 -10 -35 -2 -37 -3 -15 -10 l25 -8
-27 -1 c-26 -1 -52 -21 -28 -21 7 0 9 -7 6 -16 -4 -12 -2 -15 9 -10 8 3 15 1
15 -4 0 -5 -9 -12 -20 -15 -47 -15 3 -55 70 -55 42 -1 44 -2 26 -15 -20 -15
-20 -15 0 -15 11 0 24 -4 30 -10 10 -10 167 -16 202 -7 35 9 89 45 113 75 15
19 19 21 14 7 -9 -19 -24 -275 -18 -284 2 -3 10 4 18 15 11 14 15 47 14 134 0
179 -5 162 39 154 20 -4 42 -10 47 -14 6 -4 20 -10 31 -14 25 -8 38 20 22 48
-6 10 -5 16 2 16 5 0 10 5 10 10 0 6 -7 10 -15 10 -8 0 -15 5 -15 11 0 6 7 9
15 5 12 -4 15 3 13 34 -1 42 -18 57 -46 41 -10 -5 -25 -5 -40 2 -20 9 -26 8
-37 -6 -11 -15 -13 -10 -18 31 -8 65 9 191 28 212 16 18 19 114 3 104 -12 -8
-10 15 11 89 10 37 15 67 11 67 -4 0 -16 -33 -25 -72z m-52 -360 c-6 -148 -2
-137 -65 -170 -40 -21 -58 -36 -58 -49 0 -24 -16 -25 -29 -1 -9 16 -10 16 -16
0 -4 -10 -12 -18 -18 -18 -6 0 -7 3 -3 7 3 4 -10 23 -30 44 -20 20 -33 42 -30
47 3 6 40 27 81 46 63 30 80 43 109 88 19 29 38 65 41 80 13 53 21 19 18 -74z"/>
<path d="M6015 1988 c-15 -50 -11 -84 14 -115 14 -18 32 -33 40 -33 8 0 12 -3
8 -6 -10 -10 -47 7 -47 22 0 8 -4 14 -10 14 -5 0 -10 -4 -10 -9 0 -6 5 -13 10
-16 6 -3 10 -15 10 -26 0 -10 5 -19 11 -19 5 0 7 5 3 11 -4 8 0 7 15 -1 12 -6
19 -15 16 -21 -4 -5 8 -9 24 -9 26 0 30 -4 28 -22 -1 -16 8 -27 37 -44 50 -28
97 -19 64 14 -19 19 2 14 29 -8 37 -29 58 -25 74 13 8 17 13 36 11 40 -1 4 5
7 14 5 9 -2 19 3 22 11 3 10 0 12 -11 8 -9 -3 -19 -2 -22 3 -4 6 -1 10 4 10
22 0 10 18 -14 22 -26 5 -35 -6 -12 -16 6 -3 -2 -3 -19 0 -28 4 -32 2 -39 -23
l-7 -28 -18 22 c-9 12 -20 19 -24 16 -3 -4 -6 1 -6 11 0 29 -31 32 -54 4 l-21
-26 -25 24 -25 24 43 0 c23 0 42 3 42 7 0 3 -14 19 -32 34 -17 16 -32 37 -33
48 -2 34 -34 71 -61 71 -13 0 -26 -6 -29 -12z"/>
<path d="M7550 1803 c-19 -10 -50 -12 -124 -8 -54 3 -102 7 -106 10 -4 3 -20
-1 -34 -9 -24 -12 -25 -15 -10 -27 13 -11 17 -10 25 2 8 12 10 12 19 -1 13
-21 13 -24 -11 -54 -35 -44 -10 -51 28 -7 39 46 55 52 49 19 -2 -15 -9 -22
-21 -20 -11 2 -14 -1 -9 -9 4 -8 3 -10 -4 -5 -7 4 -12 3 -12 -3 0 -5 -2 -16
-5 -23 -4 -9 2 -14 15 -15 11 -1 20 2 20 7 0 4 9 6 20 3 26 -7 26 -20 -1 -28
-38 -12 -11 -16 31 -5 65 18 67 -3 2 -28 -51 -19 -57 -25 -59 -52 -1 -16 -1
-30 0 -30 2 0 20 9 41 20 48 24 139 45 160 37 23 -9 20 -25 -6 -30 -13 -3 -5
-4 17 -4 27 2 39 6 37 15 -1 8 2 11 7 8 5 -3 7 -14 4 -24 -3 -14 -11 -18 -28
-14 -13 2 -47 -3 -77 -12 -40 -12 -57 -23 -70 -46 -9 -16 -14 -30 -9 -30 4 0
13 11 19 25 7 14 24 30 39 36 38 14 146 2 139 -16 -3 -8 2 -11 14 -8 15 4 18
1 15 -15 -3 -19 -1 -20 22 -11 44 17 38 0 -8 -21 -42 -20 -40 -21 9 -6 23 8
32 -8 10 -18 -10 -5 -10 -7 0 -12 7 -3 19 -13 27 -21 12 -11 27 -13 66 -8 37
5 50 4 45 -4 -5 -7 2 -11 16 -11 13 0 41 -3 63 -7 l39 -6 -18 29 c-10 16 -42
51 -70 77 -45 43 -49 49 -33 58 9 6 22 7 27 4 6 -3 10 -2 10 3 0 15 -30 23
-48 13 -11 -6 -25 -2 -49 16 -33 25 -34 25 -48 7 -12 -16 -11 -21 2 -36 8 -9
13 -21 12 -25 -6 -13 -104 95 -106 117 -2 12 1 18 7 15 24 -15 29 8 11 43 -11
20 -24 55 -30 77 -6 22 -19 49 -29 61 -15 19 -19 20 -42 7z"/>
<path d="M0 1657 c0 -83 2 -96 18 -100 16 -4 16 -5 0 -6 -15 -1 -18 -11 -18
-55 0 -34 5 -56 13 -59 10 -4 10 -6 0 -6 -7 -1 -13 -5 -13 -11 0 -6 36 -9 86
-9 47 0 88 -2 92 -5 3 -3 -15 -6 -39 -6 -24 0 -51 -5 -59 -10 -10 -7 11 -10
70 -11 55 -1 74 -4 55 -8 -28 -6 -27 -7 19 -14 27 -4 118 -7 202 -7 96 0 154
-4 154 -10 0 -5 5 -10 11 -10 5 0 7 5 4 10 -4 6 10 10 34 10 23 0 41 4 41 9 0
16 -33 22 -66 11 -36 -12 -73 -2 -38 10 10 4 -3 6 -31 6 -28 -1 -55 -5 -62 -9
-6 -4 -59 -6 -118 -5 -71 2 -98 5 -83 11 13 5 41 6 63 3 35 -4 97 9 70 15 -5
1 -14 3 -20 4 -5 2 -38 3 -73 4 -45 1 -61 4 -56 13 5 8 -4 10 -34 6 -33 -5
-40 -3 -35 9 4 10 16 14 38 11 23 -3 31 0 28 8 -6 16 35 28 50 15 13 -11 97
-3 97 9 0 11 83 20 95 10 19 -16 77 -19 91 -5 23 22 17 26 -38 21 -29 -3 -60
-1 -68 4 -13 9 42 15 107 13 7 -1 10 3 7 8 -10 17 17 49 48 57 18 4 28 11 22
15 -6 3 -27 -3 -47 -13 -39 -21 -51 -25 -44 -12 3 4 -8 7 -23 8 -24 1 -26 -1
-15 -12 7 -8 24 -14 37 -15 21 0 22 -1 3 -8 -11 -5 -26 -6 -34 -3 -9 3 -12 1
-7 -6 9 -16 -34 -16 -85 0 -54 16 -49 28 14 29 52 1 52 1 22 14 l-30 13 35 7
c19 3 49 5 65 4 54 -5 95 1 95 12 0 6 -7 9 -15 5 -23 -8 -17 7 10 27 14 10 26
13 30 7 3 -5 16 -11 28 -11 17 -1 18 -2 5 -6 -10 -2 -18 -10 -18 -16 0 -7 -7
-3 -15 7 -8 11 -18 16 -22 13 -13 -13 17 -31 53 -33 24 0 31 2 22 8 -8 6 -3 7
16 3 25 -5 28 -4 17 9 -7 8 -26 18 -42 21 -39 9 -37 21 7 30 50 9 35 18 -28
17 l-53 -1 30 15 30 15 -35 -7 c-43 -7 -41 -7 -115 4 -34 6 -61 6 -63 1 -2 -5
-16 -9 -30 -8 l-27 1 25 8 c14 5 -62 8 -180 9 -113 1 -222 4 -242 7 l-38 7 0
-96z"/>
<path d="M9212 1705 c2 -3 30 -6 61 -6 54 -2 81 -17 35 -20 -13 -1 -5 -5 17
-9 37 -7 38 -7 8 -9 -17 0 -38 -4 -47 -7 -11 -4 -16 0 -16 12 0 16 -2 16 -9 5
-7 -11 -3 -20 11 -33 22 -19 32 -23 24 -10 -3 5 22 9 54 9 33 1 63 -4 67 -10
3 -5 2 -7 -4 -4 -10 6 -107 -23 -120 -36 -4 -4 9 -4 28 -1 19 4 36 10 39 14 3
4 24 9 46 11 30 3 40 1 37 -8 -3 -8 -16 -10 -35 -6 -22 4 -34 2 -42 -9 -10
-14 -65 -25 -139 -28 -13 -1 -15 -5 -8 -19 6 -10 17 -23 25 -31 9 -7 16 -19
16 -28 0 -8 3 -13 6 -10 3 4 1 22 -4 42 -11 39 4 50 28 21 8 -10 20 -13 29 -9
9 4 39 10 66 14 l50 7 -60 2 c-43 2 -53 5 -35 10 35 10 131 1 124 -11 -4 -6 2
-8 12 -6 16 3 19 14 22 86 l3 82 -147 0 c-81 0 -145 -2 -142 -5z"/>
<path d="M4414 1636 c16 -13 44 -27 61 -30 37 -7 95 -61 73 -69 -7 -2 -22 0
-33 5 -11 5 -5 -4 14 -19 18 -15 47 -41 65 -56 23 -21 32 -24 34 -13 2 10 11
6 32 -16 16 -17 35 -28 43 -25 7 3 21 -7 31 -22 15 -21 27 -27 61 -29 23 -1
54 -6 68 -11 20 -8 30 -7 42 5 8 9 16 11 16 5 1 -6 2 -15 3 -21 3 -27 19 -10
23 23 3 30 -1 43 -16 56 -21 18 -42 99 -23 87 6 -3 13 -19 17 -34 3 -15 17
-41 30 -57 15 -17 23 -35 20 -46 -5 -15 -1 -17 19 -13 20 3 25 0 24 -13 -3
-35 2 -54 12 -48 5 3 15 -5 22 -19 8 -18 19 -26 37 -26 31 0 45 -9 54 -32 3
-10 16 -18 27 -18 11 0 20 -6 20 -12 0 -9 4 -8 10 2 7 11 10 12 10 2 0 -9 7
-11 20 -7 22 7 26 -5 8 -23 -9 -9 -7 -13 8 -18 39 -12 66 -28 54 -32 -7 -3
-16 1 -20 8 -4 7 -12 10 -17 7 -6 -4 -25 -2 -43 3 -19 5 -29 6 -24 1 14 -14
243 -73 262 -68 15 4 15 5 0 6 -10 0 -18 5 -18 9 0 5 28 2 63 -6 149 -36 143
-34 123 -42 -39 -13 363 -95 929 -189 402 -67 976 -158 1050 -167 33 -4 69
-10 80 -15 18 -7 18 -8 -5 -8 -25 0 -243 18 -460 39 -63 6 -163 18 -221 26
-59 9 -122 15 -142 12 -20 -2 -34 -1 -32 2 4 7 -76 24 -195 40 -47 7 -143 25
-215 41 -224 49 -279 59 -320 57 l-40 -1 38 -4 c20 -2 37 -8 37 -14 0 -5 12
-9 28 -10 23 0 24 -1 7 -8 -12 -5 -28 -3 -40 4 -27 17 -97 26 -143 19 -28 -4
-38 -11 -39 -25 -1 -13 5 -19 18 -19 10 0 19 5 19 10 0 15 17 12 23 -4 5 -12
-9 -13 -74 -10 -44 2 -88 8 -97 15 -16 10 -16 10 1 5 11 -3 17 0 17 10 0 18
30 31 39 16 5 -8 18 -5 41 10 l35 21 -34 9 c-39 11 -55 3 -21 -10 21 -8 22 -9
5 -16 -12 -4 -22 -1 -27 9 -5 8 -21 16 -36 16 l-27 1 30 8 c25 6 21 8 -27 10
-116 4 -135 3 -148 -5 -8 -5 -11 -4 -7 3 5 6 -9 13 -35 17 -28 5 -43 4 -46 -4
-2 -6 -13 -11 -25 -11 -17 0 -19 2 -8 9 27 17 -56 24 -126 10 -88 -16 -104
-30 -30 -26 32 2 60 0 63 -4 9 -15 -12 -17 -86 -9 -45 5 -76 5 -78 -1 -2 -5
-8 -9 -13 -9 -6 0 -7 5 -4 10 7 11 5 12 -40 15 -16 1 -35 -2 -42 -7 -6 -5 -24
-8 -40 -5 -27 4 -26 4 5 6 19 0 35 7 38 16 4 9 19 15 42 15 57 0 29 12 -38 16
-34 2 -75 10 -92 19 -17 8 -40 15 -50 15 -16 0 -17 -3 -8 -20 6 -11 16 -20 23
-19 21 4 67 -13 67 -23 0 -12 -69 -1 -87 14 -7 5 -22 7 -34 3 -18 -6 -20 -4
-14 14 4 12 2 21 -4 21 -6 0 -11 -7 -11 -15 0 -8 -4 -15 -9 -15 -5 0 -7 -9 -4
-20 4 -15 0 -20 -13 -20 -16 0 -17 -2 -4 -10 26 -17 -8 -12 -47 6 -25 13 -37
14 -46 5 -6 -6 -20 -11 -32 -11 -12 0 -25 -4 -30 -9 -6 -5 -23 -11 -40 -14
-25 -3 -23 -4 10 -5 22 -1 57 2 78 7 21 5 37 5 37 0 0 -5 15 -9 34 -9 29 0 66
-20 66 -36 0 -2 -14 -4 -31 -4 -16 0 -28 4 -25 9 7 11 -137 8 -146 -3 -4 -6
-13 -5 -22 3 -8 7 -23 11 -33 8 -15 -3 -14 -6 7 -15 24 -10 23 -11 -14 -11
-50 -1 -43 -9 59 -62 l80 -41 -50 6 c-35 4 -55 12 -68 28 -10 13 -16 17 -12
11 4 -9 1 -11 -9 -7 -9 3 -14 9 -11 14 2 4 -6 12 -18 17 -56 26 -80 33 -101
27 -13 -3 -39 -1 -59 4 -20 6 -40 6 -48 1 -10 -6 -4 -9 18 -9 17 0 35 -4 38
-10 3 -5 -1 -10 -9 -10 -9 0 -16 -4 -16 -10 0 -5 -19 -20 -42 -33 -32 -18 -56
-23 -96 -22 -29 1 -55 -2 -58 -6 -2 -4 -19 -3 -37 2 -17 5 -42 9 -55 9 -20 0
-22 -4 -19 -35 3 -20 7 -38 9 -41 3 -3 27 0 52 7 52 13 53 18 4 29 l-33 8 37
1 c20 1 39 5 42 10 3 5 21 6 38 2 50 -12 107 -2 119 20 5 11 14 17 19 14 4 -3
11 1 14 7 3 7 3 1 0 -13 -4 -19 -1 -28 12 -33 15 -6 14 -8 -6 -26 -26 -23 -23
-24 16 -10 15 6 30 7 33 3 22 -31 144 -74 201 -72 l25 1 -25 7 c-39 11 -11 19
60 18 36 -1 72 3 79 8 22 13 61 12 61 -1 0 -7 3 -20 7 -30 5 -14 2 -16 -23
-12 -16 3 -40 2 -54 -2 -20 -6 -16 -8 22 -9 48 -1 73 -16 41 -24 -17 -4 -17
-5 0 -6 25 -1 11 -21 -16 -22 -20 -1 -20 -2 3 -8 16 -5 24 -13 22 -24 -2 -12
8 -23 30 -33 l33 -15 -30 6 c-16 4 -36 12 -43 18 -8 6 -21 12 -30 14 -10 1
-39 7 -67 13 -106 24 -114 23 -60 -4 28 -14 58 -26 67 -26 24 0 32 -18 11 -23
-10 -3 3 -3 28 0 32 4 55 0 75 -11 23 -13 24 -16 7 -11 -13 3 -33 7 -45 10
l-23 5 23 -11 c33 -18 27 -28 -10 -19 -86 22 -113 33 -96 39 12 4 -4 15 -54
36 -42 18 -64 31 -53 33 13 3 6 10 -25 28 -34 19 -48 22 -79 15 -20 -4 -45 -4
-56 0 -17 6 -17 8 -2 8 20 1 23 17 4 24 -7 2 -35 3 -62 1 -166 -11 -202 -16
-231 -34 -23 -15 -33 -17 -42 -8 -9 9 -15 9 -24 -1 -11 -12 -10 -13 6 -7 19 6
19 6 3 -12 -9 -10 -17 -26 -17 -36 0 -14 4 -15 21 -6 11 7 23 9 26 7 3 -3 -9
-13 -26 -22 -23 -11 -31 -23 -31 -41 0 -20 4 -25 16 -20 9 3 28 9 42 12 15 4
33 11 40 17 13 10 104 34 162 43 44 6 48 11 19 24 l-24 11 25 -7 c76 -18 76
-18 63 -2 -11 12 -6 12 37 -1 57 -18 67 -33 15 -21 -20 4 -38 4 -41 -1 -3 -5
4 -9 15 -9 11 0 23 -5 27 -11 5 -9 -1 -10 -22 -5 -54 14 -116 5 -218 -31 -55
-19 -111 -37 -123 -40 -31 -7 -46 -29 -41 -58 3 -14 2 -25 -2 -25 -10 0 -32
-79 -25 -90 3 -5 1 -11 -4 -14 -5 -3 -12 -23 -16 -43 -9 -51 -51 -137 -60
-124 -9 16 -58 7 -61 -11 -1 -13 20 -15 147 -17 108 -1 149 1 149 10 0 9 3 9
14 0 19 -16 435 -14 455 2 12 9 13 9 7 0 -6 -10 76 -13 390 -13 219 1 409 3
422 7 l25 6 -24 14 -24 14 25 -7 c14 -4 39 -7 55 -8 18 -1 29 -6 27 -13 -3
-17 35 -17 41 0 3 9 9 9 25 0 30 -18 798 -19 820 -1 12 10 16 10 19 1 4 -10
315 -13 1449 -13 l1444 0 0 658 0 659 -92 2 c-51 1 -102 4 -113 8 -17 5 -18 4
-6 -11 8 -9 29 -16 50 -17 28 0 32 -2 16 -8 l-20 -8 20 -5 c11 -3 1 -6 -23 -7
-24 0 -52 -6 -62 -11 -16 -8 -18 -8 -14 5 7 18 4 18 -33 4 -15 -6 -48 -11 -72
-10 -41 0 -88 -19 -75 -32 11 -11 -71 -22 -156 -20 -61 1 -124 11 -224 37
-157 41 -154 40 -139 25 9 -9 7 -21 -8 -50 l-19 -39 -97 0 c-160 0 -1548 161
-2458 285 -505 69 -1209 162 -1315 175 -52 6 -106 13 -118 16 -17 3 -21 1 -16
-7 7 -12 -40 -9 -113 6 l-28 6 29 -25z m1989 -436 c40 -8 57 -16 57 -27 0 -13
-9 -14 -55 -8 -51 6 -55 5 -55 -14 0 -17 6 -21 33 -21 52 0 69 -18 65 -70 l-3
-45 -40 2 c-74 4 -107 13 -101 28 3 8 2 16 -2 18 -4 2 0 2 8 0 8 -2 34 -7 58
-10 39 -5 44 -4 40 13 -2 13 -15 21 -42 25 -22 4 -45 14 -52 24 -23 31 -7 112
20 102 6 -3 37 -10 69 -17z m108 -20 c16 0 19 -7 19 -54 0 -52 1 -54 29 -58
27 -4 29 -1 35 34 4 21 2 48 -4 59 -10 18 -9 19 17 13 15 -4 30 -9 33 -13 3
-3 4 -45 2 -93 -3 -86 -4 -88 -28 -88 -19 0 -24 5 -24 25 0 21 -5 25 -31 25
-22 0 -32 -6 -36 -19 -3 -13 -11 -17 -24 -14 -18 5 -20 14 -18 88 1 45 -1 87
-4 92 -4 6 -3 13 1 17 3 4 8 2 10 -3 2 -6 12 -11 23 -11z m381 -45 c91 -9 100
-20 96 -126 -3 -78 -5 -84 -23 -81 -11 2 -21 5 -23 7 -1 1 -3 37 -4 79 -2 66
-4 76 -20 76 -16 0 -18 -9 -18 -75 0 -73 -1 -75 -25 -75 -23 0 -25 3 -26 53
-1 28 0 64 1 79 1 25 -15 46 -27 34 -3 -3 -8 -38 -10 -78 -3 -40 -6 -74 -8
-76 -2 -2 -13 -1 -25 3 -20 6 -21 12 -19 101 l3 94 30 -4 c17 -3 61 -8 98 -11z
m286 -48 c20 -19 23 -29 21 -102 -1 -44 -3 -83 -5 -86 -9 -15 -53 4 -56 25 -4
29 -63 36 -70 8 -4 -15 -12 -18 -30 -15 -23 4 -24 7 -23 92 1 48 5 93 9 99 12
19 127 3 154 -21z m142 -2 c83 -11 101 -50 84 -177 -6 -41 -9 -44 -30 -40 -21
4 -24 10 -25 51 -4 125 -1 116 -34 116 l-30 0 -3 -75 c-2 -41 -5 -76 -7 -78
-1 -2 -13 0 -26 3 -24 6 -24 9 -24 110 l0 103 25 -3 c14 -2 45 -7 70 -10z
m219 -31 c70 -9 84 -28 84 -115 0 -94 -9 -103 -97 -94 -86 10 -100 27 -94 119
2 37 0 62 -5 59 -5 -3 -4 4 2 15 12 23 30 32 48 27 7 -3 35 -7 62 -11z m1056
-54 c-3 -5 -1 -10 5 -10 11 0 7 -86 -6 -150 -6 -25 -6 -25 14 -5 11 11 18 23
15 28 -2 4 0 7 6 7 6 0 10 -22 8 -53 -2 -50 -4 -53 -29 -55 -21 -2 -27 3 -30
20 -2 18 -13 25 -44 33 -25 6 -54 23 -73 44 l-32 34 23 43 c12 24 24 41 26 39
2 -2 -1 -12 -7 -24 -12 -21 0 -37 20 -25 6 3 26 -2 45 -12 38 -21 48 -15 59
34 5 25 3 33 -10 38 -13 5 -14 8 -3 15 17 11 20 11 13 -1z m-403 -29 c13 -5
44 -17 70 -26 41 -14 51 -23 68 -62 23 -51 25 -75 9 -104 -5 -11 -12 -30 -13
-42 -7 -47 -20 -63 -77 -101 -58 -38 -61 -39 -101 -27 -51 16 -135 93 -158
146 -31 69 -33 98 -10 125 11 12 20 30 20 38 0 9 3 13 6 9 4 -3 14 3 23 14 25
32 116 48 163 30z m500 -281 c2 -5 44 -11 93 -14 196 -12 232 -49 185 -196
-11 -34 -20 -67 -20 -73 0 -23 -53 -87 -72 -87 -14 0 -18 -5 -15 -14 4 -10 1
-13 -7 -10 -7 3 -19 -2 -26 -11 -7 -8 -25 -15 -41 -15 -30 0 -123 43 -114 52
4 3 -6 15 -20 26 -14 11 -31 35 -37 54 -6 18 -21 47 -32 63 -12 17 -22 35 -23
40 -1 6 -4 22 -8 36 -6 23 3 36 57 93 64 67 74 74 80 56z m-4176 -375 c-11 -8
-16 -15 -10 -15 5 0 2 -5 -6 -11 -12 -8 -11 -9 5 -5 70 17 141 27 183 25 26
-1 49 -1 52 0 22 9 94 4 98 -7 3 -9 -16 -12 -72 -12 -41 0 -87 -5 -103 -11
-15 -7 -67 -12 -114 -13 -70 -2 -92 -6 -123 -25 -21 -13 -49 -23 -63 -23 -18
0 -21 -3 -12 -9 22 -14 33 -11 74 17 23 15 48 24 64 22 l26 -4 -30 -13 c-16
-7 -42 -20 -58 -28 -15 -8 -37 -13 -50 -11 -12 1 -28 -1 -35 -6 -7 -4 -16 -6
-19 -3 -3 3 -23 -5 -44 -18 -26 -17 -37 -20 -33 -10 4 8 13 15 20 15 8 0 17 7
20 15 4 8 17 15 30 15 13 0 23 5 22 11 -2 5 14 16 35 24 54 19 121 67 106 76
-8 5 -6 9 7 12 40 10 50 7 30 -8z"/>
<path d="M9377 1518 c2 -5 -2 -8 -9 -9 -45 -2 -78 -19 -38 -19 23 0 23 -1 5
-14 -17 -12 -15 -13 20 -10 45 5 74 11 102 21 17 6 17 6 1 -10 -9 -9 -26 -17
-37 -17 -11 0 -23 -4 -26 -10 -3 -5 -30 -11 -58 -11 -29 -1 -41 -3 -27 -6 91
-14 96 -15 75 -24 -15 -7 -13 -8 12 -5 21 4 33 1 37 -9 3 -8 17 -15 31 -15 15
0 24 -4 20 -10 -3 -5 -1 -10 4 -10 7 0 11 32 11 86 l0 85 -64 -3 c-35 -2 -62
-6 -59 -10z"/>
<path d="M8550 1474 c-15 -37 -6 -54 27 -54 27 1 27 1 9 15 -19 15 -19 15 5
15 23 1 23 1 5 15 -11 8 -16 15 -10 15 19 0 35 -18 32 -35 -2 -9 5 -22 15 -29
15 -9 22 -7 39 14 19 23 20 23 14 4 -5 -18 -2 -23 21 -27 18 -4 32 -1 38 8 6
7 16 22 23 32 12 16 12 16 7 1 -3 -10 -7 -24 -11 -32 -9 -22 56 -30 72 -9 13
17 13 17 14 -1 0 -13 5 -17 20 -13 11 3 22 1 25 -3 5 -9 58 -19 132 -25 21 -2
51 -7 67 -11 24 -6 28 -4 23 8 -3 9 0 21 6 27 6 6 7 11 2 11 -6 0 -3 4 5 10
21 13 7 22 -42 27 -143 16 -135 17 -142 -11 -3 -14 -11 -26 -16 -26 -13 0 -13
17 1 25 17 11 4 30 -22 32 -13 1 -39 5 -56 9 -24 5 -33 3 -33 -7 0 -12 -2 -12
-9 0 -5 7 -30 15 -55 17 -26 2 -51 6 -56 9 -5 3 -20 -6 -33 -21 l-25 -26 5 26
c4 19 1 26 -10 26 -8 0 -28 3 -46 6 -27 6 -32 3 -41 -22z"/>
<path d="M0 1338 l0 -33 120 -1 c66 -1 142 -4 168 -8 30 -3 40 -3 27 3 -18 8
-16 10 15 19 33 10 31 10 -31 11 -38 1 -91 10 -124 21 -32 11 -84 20 -117 20
l-58 0 0 -32z"/>
<path d="M504 1222 c4 -6 -5 -12 -21 -15 -18 -3 -10 -5 22 -7 43 -2 46 -3 20
-9 -16 -4 -50 -2 -75 4 -35 9 -57 9 -96 -2 -28 -7 -80 -11 -115 -9 -35 2 -72
4 -82 5 -10 1 -15 6 -12 11 8 14 0 13 -75 -8 l-65 -19 -3 -49 -3 -49 153 0
c84 0 155 3 158 7 3 4 44 9 90 12 47 2 112 12 145 21 42 12 79 15 121 11 36
-4 84 -1 115 6 l54 12 -69 8 c-38 5 -72 10 -74 13 -13 13 15 20 74 18 38 -1
64 2 64 8 0 7 -44 9 -124 7 -104 -2 -121 -1 -103 9 20 12 16 13 -29 11 -28 -1
-56 2 -64 7 -8 5 -11 4 -6 -3z"/>
<path d="M240 1058 c-26 -10 -177 -11 -218 -1 -21 5 -22 2 -22 -52 l0 -58 61
7 c34 3 80 6 103 7 l41 1 -40 13 -40 12 67 4 c36 2 65 2 63 -1 -2 -3 15 -7 38
-7 32 -2 38 0 27 8 -12 8 -10 10 9 6 13 -3 32 0 43 6 16 9 22 9 25 0 3 -7 19
-13 36 -12 31 1 31 1 7 9 -25 8 -25 8 5 9 17 1 77 10 135 20 97 17 102 19 67
26 -21 4 -61 4 -90 0 -29 -4 -105 -9 -169 -11 -99 -2 -116 -1 -111 12 6 16 -2
17 -37 2z"/>
<path d="M439 856 c-3 -3 -40 -6 -84 -7 -44 -1 -84 -5 -90 -8 -5 -3 -32 -7
-60 -8 -27 -1 -85 -5 -127 -9 l-78 -7 0 -408 0 -409 495 0 c277 0 495 4 495 9
0 5 -7 25 -15 45 -12 28 -12 36 -2 36 7 0 20 9 30 20 14 17 14 20 2 20 -18 0
-20 16 -2 23 7 3 4 6 -7 6 -15 1 -16 4 -6 16 10 12 9 15 -6 15 -16 0 -17 2 -4
10 13 8 12 10 -2 10 -10 0 -18 3 -18 6 0 4 8 13 18 21 16 14 16 14 0 9 -20 -6
-25 10 -5 17 6 3 3 6 -8 6 -17 1 -17 3 -5 11 11 7 12 10 2 10 -9 0 -11 7 -7
21 5 14 3 19 -3 15 -6 -3 -12 4 -14 16 -2 13 -10 23 -18 23 -16 0 -16 -4 -7
-75 6 -43 6 -43 -8 9 -7 30 -19 58 -27 62 -11 7 -11 9 1 9 11 0 12 13 6 63 -3
34 -8 89 -10 122 -3 34 -9 61 -16 64 -7 2 -1 10 12 17 l24 13 -29 1 c-28 0
-29 1 -10 14 17 13 13 14 -41 11 l-60 -4 58 11 c61 12 77 28 26 28 -16 0 -28
4 -25 9 8 12 -18 21 -34 11 -10 -6 -8 -9 6 -13 10 -2 -3 -5 -31 -6 -27 -1 -61
-4 -75 -8 l-25 -7 25 -7 c21 -6 18 -7 -15 -8 -31 0 -37 2 -25 10 11 8 2 9 -34
4 -71 -10 -103 -25 -41 -20 49 4 50 4 10 -5 -22 -5 -71 -9 -110 -10 -49 0 -65
-3 -55 -10 10 -7 -5 -9 -50 -8 -36 1 -75 -2 -87 -6 -13 -4 -23 -3 -23 2 0 5
21 13 48 19 l47 10 -60 3 -60 3 45 7 c131 21 185 32 195 39 12 11 62 17 224
31 69 5 126 12 128 14 10 10 -68 15 -115 7 -29 -4 -55 -4 -58 0 -3 5 1 10 8
10 7 1 -5 5 -27 9 l-40 7 45 3 c25 1 56 6 70 10 l25 8 -26 1 c-14 1 -41 8 -59
17 -26 13 -50 16 -119 11 -56 -4 -81 -3 -71 3 8 5 10 10 4 10 -6 0 -13 -2 -15
-4z"/>
<path d="M1815 846 c-19 -15 -18 -15 15 -16 27 -1 30 -3 16 -9 -31 -12 -7 -20
98 -33 53 -7 96 -15 96 -19 0 -3 -46 -6 -102 -6 -57 1 -132 -3 -168 -7 -52 -6
-80 -3 -140 13 -63 18 -67 20 -29 16 25 -2 50 0 56 6 6 6 27 6 62 -2 29 -6 64
-8 79 -4 27 7 27 7 5 16 -13 4 -51 8 -85 8 -122 -1 -134 -1 -188 5 -36 4 -48
3 -35 -3 19 -8 19 -9 -5 -15 -26 -7 -37 -7 -167 -3 -69 2 -82 0 -86 -14 -4
-14 2 -15 41 -7 25 4 47 6 50 4 5 -6 -61 -25 -128 -37 -30 -5 -73 -12 -95 -16
l-40 -7 35 -6 c31 -6 27 -7 -32 -14 -38 -5 -68 -12 -68 -15 0 -4 -10 -7 -22
-7 -16 1 -22 -4 -20 -16 1 -9 -2 -19 -8 -23 -5 -3 -10 -1 -10 4 0 6 -7 11 -16
11 -8 0 -12 -4 -9 -10 3 -5 -1 -10 -9 -10 -22 0 -28 -17 -11 -33 11 -12 12
-17 2 -20 -9 -4 -8 -8 3 -16 10 -7 11 -11 3 -11 -7 0 -13 -5 -13 -11 0 -5 4
-8 9 -4 5 3 12 1 16 -5 3 -5 -1 -10 -9 -10 -19 0 -22 -46 -3 -53 6 -3 7 -6 2
-6 -6 -1 -9 -16 -7 -35 3 -26 10 -36 28 -40 14 -4 29 -4 34 -1 5 3 14 -21 20
-52 9 -49 23 -100 56 -216 4 -12 0 -17 -15 -17 -12 0 -21 -6 -21 -16 0 -9 -5
-12 -11 -8 -7 4 -10 1 -7 -7 3 -8 10 -13 16 -12 6 2 9 -4 6 -12 -4 -8 -1 -15
5 -15 6 0 8 -6 5 -13 -3 -8 6 -13 25 -15 25 -2 28 1 24 19 -4 15 -3 20 5 15 7
-4 12 -14 12 -22 0 -11 25 -14 145 -14 l145 0 -20 33 c-11 17 -20 39 -19 47 0
8 11 -6 25 -32 l24 -48 105 0 104 0 -27 48 c-29 48 -52 102 -31 72 5 -8 23
-39 40 -68 l29 -52 249 0 249 0 11 47 c7 25 19 62 28 82 9 20 17 38 18 41 1 3
5 14 10 25 16 43 68 181 77 205 7 22 13 25 51 22 23 -2 61 3 85 11 38 13 42
13 42 -1 0 -12 3 -13 12 -4 7 7 39 11 83 11 38 -1 59 -4 45 -6 -14 -3 -30 -9
-37 -15 -7 -5 -36 -8 -65 -7 l-53 3 -49 -84 c-89 -155 -161 -275 -167 -280 -3
-3 -11 -15 -18 -27 -11 -22 -10 -23 24 -23 20 0 45 5 56 10 13 7 19 7 19 0 0
-6 66 -10 190 -10 105 0 190 3 190 8 0 4 -14 34 -30 67 -16 33 -30 65 -30 72
0 6 -9 15 -21 18 -16 5 -18 10 -8 21 9 11 8 15 -2 18 -42 13 -44 14 -25 15 12
1 16 6 12 16 -3 8 -9 22 -12 30 -8 19 67 89 78 72 4 -7 8 -19 8 -28 0 -9 7
-32 15 -50 13 -28 15 -30 13 -9 -2 17 3 26 15 28 33 7 67 -7 67 -28 0 -14 -10
-21 -42 -28 -25 -5 -42 -14 -40 -21 1 -6 5 -28 8 -49 7 -49 14 -54 52 -43 30
9 32 8 32 -15 0 -19 -5 -24 -24 -24 -13 0 -27 6 -30 13 -3 6 -3 -6 0 -28 3
-22 10 -44 16 -50 7 -7 9 -3 5 12 -6 26 -4 27 24 12 11 -5 17 -14 14 -20 -4
-5 134 -9 369 -9 l374 0 22 35 c12 19 24 35 27 35 3 0 -4 -16 -16 -35 l-20
-35 44 0 c25 0 54 6 65 12 16 10 24 10 40 0 25 -15 53 -15 68 0 9 9 12 9 12 1
0 -7 15 -11 39 -10 22 0 37 5 35 9 -3 4 -1 8 5 8 5 0 13 -5 16 -10 3 -6 48
-10 99 -10 l94 0 6 36 c4 19 10 42 13 50 4 12 -1 14 -23 9 -27 -5 -26 -4 8 15
25 13 40 30 44 48 3 15 10 37 15 50 13 34 12 65 -3 56 -10 -6 -10 -4 0 7 28
30 8 28 -53 -6 -36 -20 -65 -31 -65 -25 0 7 -8 9 -22 4 -21 -6 -22 -5 -8 11
14 17 14 17 -8 6 -12 -7 -20 -16 -17 -20 6 -10 -49 -35 -65 -29 -12 4 80 68
98 68 5 0 15 7 22 15 7 8 19 15 27 15 13 0 13 -3 3 -15 -17 -20 -6 -19 38 5
64 34 85 58 92 105 4 25 6 45 5 45 -11 0 -281 -144 -287 -153 -6 -9 -8 -9 -8
2 0 8 -6 11 -17 7 -13 -5 -12 -1 4 11 18 15 44 93 31 93 -2 0 -24 -7 -49 -15
-47 -15 -221 -26 -213 -13 3 4 -10 9 -28 9 -22 1 -14 4 26 10 32 5 65 14 72
20 11 9 14 7 14 -9 0 -19 4 -21 53 -15 28 3 56 9 61 14 6 5 23 9 38 9 15 0 28
5 28 11 0 6 -9 8 -20 4 -11 -4 -20 -2 -20 4 0 6 11 11 25 11 18 0 25 5 25 18
0 14 8 19 28 20 16 0 44 8 63 16 l34 16 -45 -5 c-25 -2 -77 -10 -116 -16 -60
-10 -75 -10 -102 3 -36 18 -42 15 -42 -24 0 -15 -3 -28 -8 -28 -4 0 -6 18 -4
39 3 33 0 40 -17 46 -12 3 -21 10 -21 13 0 4 -18 6 -40 4 -33 -3 -39 -1 -34
11 4 10 -2 17 -18 21 -13 3 13 3 57 1 50 -2 70 0 55 5 -21 7 -22 8 -4 9 11 1
25 6 32 13 9 9 12 9 12 0 0 -6 8 -9 18 -6 14 5 14 3 -2 -10 -23 -19 -15 -20
39 -5 33 10 36 13 20 19 -13 5 -2 9 37 13 31 4 63 10 71 13 12 4 15 -2 14 -27
-2 -31 -1 -32 48 -34 28 -2 61 -6 75 -9 l25 -7 -25 12 c-14 6 -41 15 -60 19
-29 7 -24 8 35 10 48 2 61 4 41 9 l-30 6 26 12 c21 9 28 9 32 0 5 -9 7 -9 12
1 3 6 21 12 40 12 35 0 37 3 25 34 -7 18 -8 18 -25 0 -22 -21 -66 -26 -66 -6
0 10 8 13 25 10 13 -3 22 -1 19 3 -3 5 -18 9 -34 9 -16 0 -31 4 -35 9 -3 5
-20 7 -39 4 -19 -3 -36 -1 -40 6 -4 6 0 11 8 11 9 0 16 4 16 8 0 4 10 8 23 9
48 4 147 26 147 33 0 10 -25 20 -58 21 -21 1 -17 4 13 9 36 7 33 8 -25 8 -104
1 -112 1 -105 12 7 12 -6 13 -31 3 -16 -6 -16 -7 2 -15 16 -7 16 -8 -4 -4 -27
5 -205 -15 -212 -24 -3 -4 -31 -17 -64 -31 -56 -23 -57 -24 -29 -30 16 -3 35
-9 41 -13 6 -4 12 4 15 21 l4 28 7 -30 8 -30 76 2 77 2 -65 -10 c-36 -6 -71
-11 -77 -11 -7 -1 -13 -8 -13 -17 -1 -15 -2 -15 -13 0 -20 25 -58 29 -121 13
-36 -9 -93 -15 -140 -13 -45 1 -99 -2 -121 -6 -34 -7 -37 -9 -17 -16 24 -9
261 -4 308 6 22 5 25 4 14 -4 -8 -6 -22 -11 -32 -11 -9 0 -18 -4 -20 -9 -1 -4
-22 -11 -46 -14 -36 -4 -43 -3 -38 10 5 13 -2 14 -51 8 -32 -4 -76 -7 -98 -5
-56 4 -67 4 -180 -3 l-100 -6 100 12 c90 11 96 13 60 20 -66 11 -190 8 -233
-7 -65 -23 -153 -31 -163 -15 -7 11 -12 10 -24 -8 -9 -12 -35 -28 -58 -34 -47
-14 -43 -14 -77 -5 -21 6 -20 4 8 -15 19 -12 37 -18 40 -13 9 11 24 15 85 19
27 2 51 6 54 9 10 10 91 7 97 -3 3 -5 -18 -12 -46 -16 -29 -4 -64 -12 -78 -17
-14 -6 -43 -10 -64 -10 l-40 1 62 -40 c35 -21 65 -39 67 -39 2 0 34 -19 70
-42 65 -40 66 -42 43 -54 -12 -7 -43 -14 -68 -15 -25 -1 -35 -4 -22 -6 12 -2
19 -9 16 -15 -11 -18 56 2 77 23 23 23 25 23 68 0 33 -18 35 -17 82 6 51 24
69 28 69 15 0 -4 -22 -16 -49 -27 -54 -20 -55 -26 -13 -48 15 -8 40 -21 57
-30 16 -9 32 -13 35 -9 9 12 53 15 46 3 -4 -6 -16 -11 -26 -11 -10 0 -20 -4
-22 -10 -1 -5 -18 -10 -36 -12 -30 -2 -31 -4 -16 -15 23 -17 34 -16 54 2 16
14 24 12 86 -27 51 -31 79 -41 107 -40 20 0 37 -4 37 -9 0 -6 -10 -8 -22 -4
-20 5 -19 3 7 -19 17 -14 35 -26 42 -26 6 0 14 -4 17 -9 9 -13 -37 0 -52 16
-7 7 -25 16 -40 19 -62 13 -132 37 -132 45 0 5 -6 9 -14 9 -22 0 -157 56 -150
62 3 3 -1 5 -8 5 -23 -2 -132 26 -153 40 -11 7 -30 13 -43 13 -13 0 -30 7 -38
15 -9 8 -26 15 -39 15 -13 0 -26 4 -29 9 -4 5 -38 22 -76 37 -66 26 -71 30
-81 68 -25 93 -25 91 -50 88 -13 -2 -25 -8 -27 -13 -5 -12 -36 -11 -49 2 -7 7
-17 3 -32 -17 -15 -19 -32 -28 -59 -30 -20 -2 -58 -6 -84 -10 -29 -3 -48 -2
-48 4 0 5 10 32 21 61 24 56 12 50 164 84 38 9 71 14 73 12 3 -2 -5 -21 -17
-41 -12 -20 -21 -38 -19 -39 2 -2 17 3 33 10 20 9 24 14 12 14 -24 1 -11 21
14 21 10 0 19 6 19 13 0 8 25 13 85 15 47 2 96 7 108 11 18 7 11 11 -38 21
-88 18 -95 27 -18 23 47 -2 63 0 53 7 -8 5 -32 10 -52 10 -20 0 -40 5 -44 11
-11 18 147 1 169 -19 10 -9 17 -11 17 -4 0 7 -4 12 -10 12 -5 0 -10 5 -10 10
0 6 37 10 92 10 50 0 88 3 84 8 -4 4 -100 7 -212 7 l-204 0 -15 -30 c-8 -16
-15 -28 -16 -25 0 3 -2 13 -4 23 -8 40 -15 47 -49 47 -19 0 -37 -4 -41 -10 -4
-6 -15 -6 -32 1 -33 12 -42 4 -13 -11 18 -10 20 -14 9 -22 -11 -8 -10 -9 3 -4
10 3 36 -5 58 -18 l41 -23 -68 -17 c-38 -10 -88 -24 -112 -32 l-44 -14 -46 41
c-25 22 -62 55 -81 74 -23 21 -51 35 -80 41 -40 7 -42 8 -18 13 l28 6 -33 22
c-18 13 -56 27 -85 33 -29 5 -63 15 -75 22 l-22 12 25 7 c22 6 20 7 -12 8 -20
1 -42 3 -50 6 -7 3 -22 -1 -33 -9z m457 -274 c8 -8 -20 -113 -34 -127 -2 -3
-78 -7 -169 -10 -175 -5 -282 -13 -314 -22 -11 -3 -17 -2 -13 1 15 17 376 98
402 90 17 -4 18 -3 6 6 -12 9 -8 10 20 6 21 -4 30 -3 22 3 -16 10 44 25 61 14
5 -3 7 -1 3 5 -3 5 0 12 6 15 7 3 -34 5 -91 6 -57 0 -106 3 -108 5 -7 7 119
22 161 20 21 -2 43 -7 48 -12z m689 -39 c9 -11 10 -14 2 -9 -7 4 -21 2 -30 -3
-17 -10 -16 -10 2 -11 17 0 18 -2 5 -11 -11 -7 -6 -9 21 -5 28 4 45 -1 77 -22
66 -42 54 -56 -55 -66 -24 -3 -43 0 -43 5 0 5 -10 10 -22 10 -13 1 -5 5 17 9
39 7 38 7 -17 9 -31 0 -60 6 -63 11 -5 8 17 9 71 4 91 -8 96 8 9 26 -30 6 -57
16 -60 21 -4 5 -14 5 -27 -2 -15 -8 -19 -8 -13 1 5 8 -3 9 -32 5 -36 -7 -37
-6 -18 9 13 9 41 16 75 16 30 0 62 5 70 10 8 5 16 10 16 10 1 0 8 -8 15 -17z
m-417 -215 c-16 -29 -37 -47 -47 -41 -6 3 -7 1 -3 -5 11 -19 -55 -82 -87 -82
-18 0 -52 -16 -88 -42 -33 -22 -62 -39 -65 -36 -8 9 19 48 34 48 7 0 30 11 52
25 22 14 57 26 77 26 33 2 34 3 9 6 -16 3 -49 0 -74 -7 -24 -6 -46 -9 -48 -8
-7 7 56 93 68 93 7 0 31 4 53 8 22 4 55 9 74 12 18 2 36 6 39 9 10 10 13 6 6
-6z"/>
<path d="M3355 849 c-17 -4 -48 -8 -70 -9 -39 -2 -38 -3 15 -11 51 -8 141 -4
184 8 12 3 16 1 12 -6 -4 -6 -20 -11 -36 -11 -16 0 -32 -4 -35 -10 -3 -5 -32
-10 -63 -10 -38 -1 -69 -8 -92 -21 l-35 -20 45 5 45 5 -45 -13 c-44 -14 -42
-14 50 -9 117 5 213 20 258 39 19 8 43 14 53 14 21 0 27 34 7 46 -14 9 -253
11 -293 3z"/>
</g>
</svg>
